<svg width="171" height="171" viewBox="0 0 171 171" fill="none" xmlns="http://www.w3.org/2000/svg">
<mask id="mask0_45287_6139" style="mask-type:alpha" maskUnits="userSpaceOnUse" x="11" y="1" width="149" height="169">
<path d="M79.5 3.46414C83.2128 1.32055 87.7872 1.32055 91.5 3.46414L153.545 39.2859C157.258 41.4295 159.545 45.3911 159.545 49.6782V121.322C159.545 125.609 157.258 129.571 153.545 131.714L91.5 167.536C87.7872 169.68 83.2128 169.68 79.5 167.536L17.4548 131.714C13.742 129.571 11.4548 125.609 11.4548 121.322V49.6782C11.4548 45.391 13.742 41.4295 17.4548 39.2859L79.5 3.46414Z" fill="url(#paint0_radial_45287_6139)"/>
</mask>
<g mask="url(#mask0_45287_6139)">
<path d="M79.5 3.46414C83.2128 1.32055 87.7872 1.32055 91.5 3.46414L153.545 39.2859C157.258 41.4295 159.545 45.3911 159.545 49.6782V121.322C159.545 125.609 157.258 129.571 153.545 131.714L91.5 167.536C87.7872 169.68 83.2128 169.68 79.5 167.536L17.4548 131.714C13.742 129.571 11.4548 125.609 11.4548 121.322V49.6782C11.4548 45.391 13.742 41.4295 17.4548 39.2859L79.5 3.46414Z" fill="url(#paint1_radial_45287_6139)"/>
<path d="M71.188 -75.375C102.94 -93.707 142.06 -93.707 173.812 -75.375C205.564 -57.043 225.124 -23.164 225.124 13.5C225.124 50.164 205.564 84.043 173.812 102.375C142.06 120.707 102.94 120.707 71.188 102.375C39.436 84.043 19.876 50.164 19.876 13.5C19.876 -23.164 39.436 -57.043 71.188 -75.375Z" fill="url(#paint2_radial_45287_6139)"/>
<path fill-rule="evenodd" clip-rule="evenodd" d="M163 119.5C163 130.27 154.27 139 143.5 139C136.299 139 130.009 135.097 126.632 129.29C125.11 137.016 119.026 143.103 111.302 144.63C139.805 167.544 188.264 187.899 235.253 207.637C282.67 227.555 328.59 246.844 351 267.5L32.8948 182.715L81.2184 99.0162C81.2184 99.0162 86.1868 99.4794 86.0251 101.791C85.6194 107.591 86.7605 113.215 89.2248 118.683C91.9892 111.275 99.1286 106 107.5 106C114.701 106 120.991 109.904 124.368 115.71C126.132 106.755 134.027 100 143.5 100C154.27 100 163 108.73 163 119.5ZM35 84.4998C35 86.7969 34.6028 89.0013 33.8733 91.0479C34.2446 91.0161 34.6204 90.9998 35 90.9998C40.4204 90.9998 45.066 94.3172 47.0172 99.0324C49.0342 97.7455 51.43 96.9998 54 96.9998C56.7573 96.9998 59.3141 97.8582 61.4177 99.3224C66.1916 98.5521 71.1816 97.5288 76.4117 96.2409C78.6619 95.6867 81.2183 99.0162 81.2183 99.0162L32.8946 182.715L-75.8291 17.9353C-71.9287 22.4939 -68.1815 26.9325 -64.5507 31.2331C-42.5147 57.3345 -24.7684 78.3547 -3.12454 90.2946C-3.69351 88.4639 -4.00001 86.5177 -4.00001 84.4998C-4.00001 73.7302 4.73044 64.9998 15.5 64.9998C26.2695 64.9998 35 73.7302 35 84.4998Z" fill="#FFD4BB"/>
<path d="M86.7062 77.2016L97.3661 83.3561C97.3661 83.3561 57.9999 142 68.5647 209.481C72.0752 231.904 -29.6515 172.384 -8.12021 165.207C62.9999 141.5 86.7062 77.2016 86.7062 77.2016Z" fill="#FFF5F0"/>
</g>
<path d="M144.234 165.946C144.331 169.55 139.917 171.412 137.353 168.848L104.166 135.661L111.284 116.732L139.395 119.212C143.197 119.548 146.755 121.209 149.432 123.899L166.172 140.714C168.727 143.28 166.793 147.615 163.154 147.479L152.29 147.071C147.646 146.897 143.82 150.639 143.944 155.232L144.234 165.946Z" fill="#F38B40"/>
<path d="M26.3896 165.945C26.2923 169.55 30.7063 171.412 33.2704 168.848L66.4576 135.66L55.2844 117.408L32.6144 118.185C28.4472 118.328 24.4986 120.065 21.6009 123.031L4.29012 140.745C1.77175 143.322 3.71301 147.619 7.33424 147.483L18.3334 147.071C22.9768 146.897 26.8028 150.638 26.6788 155.232L26.3896 165.945Z" fill="#F38B40"/>
<path fill-rule="evenodd" clip-rule="evenodd" d="M19.878 117.913C16.6448 118.689 14.5805 121.896 15.2949 125.143C16.2724 129.586 17.5929 135.587 18.483 139.628C19.3775 143.689 20.707 149.73 21.6861 154.179C22.3952 157.401 25.5737 159.445 28.7762 158.652C33.0194 157.601 36.339 156.692 41.9081 155.849C55.976 153.721 69.1902 151.699 85 151.699C100.81 151.699 114.024 153.721 128.092 155.849C132.162 156.465 137.127 157.564 140.952 158.477C144.277 159.27 147.646 157.215 148.38 153.877C149.259 149.882 150.44 144.519 151.517 139.628C152.912 133.294 154.002 128.341 154.758 124.904C155.452 121.75 153.526 118.622 150.383 117.879C145.866 116.81 139.469 115.387 134.456 114.629C119.508 112.367 103.898 110 85 110C66.1015 110 50.4917 112.367 35.5437 114.629C29.0696 115.608 25.0564 116.671 19.878 117.913Z" fill="#FFA76A"/>
<path d="M106.088 117.7C105.894 117.274 105.468 117 105 117C104.532 117 104.106 117.274 103.912 117.7L103.552 118.492C102.068 121.758 101.393 123.227 100.458 124.478C99.6123 125.609 98.6089 126.612 97.4781 127.458C96.2271 128.393 94.7578 129.068 91.4922 130.552L90.7002 130.912C90.2738 131.106 90 131.532 90 132C90 132.468 90.2738 132.894 90.7002 133.088L91.4922 133.448C94.7578 134.932 96.2271 135.607 97.4781 136.542C98.6089 137.388 99.6123 138.391 100.458 139.522C101.393 140.773 102.068 142.242 103.552 145.508L103.912 146.3C104.106 146.726 104.532 147 105 147C105.468 147 105.894 146.726 106.088 146.3L106.448 145.508C107.932 142.242 108.607 140.773 109.542 139.522C110.388 138.391 111.391 137.388 112.522 136.542C113.773 135.607 115.242 134.932 118.508 133.448L119.3 133.088C119.726 132.894 120 132.468 120 132C120 131.532 119.726 131.106 119.3 130.912L118.508 130.552C115.242 129.068 113.773 128.393 112.522 127.458C111.391 126.612 110.388 125.609 109.542 124.478C108.607 123.227 107.932 121.758 106.448 118.492L106.088 117.7Z" fill="#FFF5F0"/>
<path d="M68.0876 117.7C67.8937 117.274 67.4685 117 67 117C66.5315 117 66.1063 117.274 65.9124 117.7L65.5524 118.492C64.0677 121.758 63.3927 123.227 62.4576 124.478C61.6123 125.609 60.6089 126.612 59.4781 127.458C58.2271 128.393 56.7578 129.068 53.4922 130.552L52.7002 130.912C52.2738 131.106 52 131.532 52 132C52 132.468 52.2738 132.894 52.7002 133.088L53.4922 133.448C56.7578 134.932 58.2271 135.607 59.4781 136.542C60.6089 137.388 61.6123 138.391 62.4576 139.522C63.3927 140.773 64.0677 142.242 65.5524 145.508L65.9124 146.3C66.1063 146.726 66.5315 147 67 147C67.4685 147 67.8937 146.726 68.0876 146.3L68.4476 145.508C69.9323 142.242 70.6073 140.773 71.5424 139.522C72.3877 138.391 73.3911 137.388 74.5219 136.542C75.7729 135.607 77.2422 134.932 80.5078 133.448L81.2998 133.088C81.7262 132.894 82 132.468 82 132C82 131.532 81.7262 131.106 81.2998 130.912L80.5078 130.552C77.2422 129.068 75.7729 128.393 74.5219 127.458C73.3911 126.612 72.3877 125.609 71.5424 124.478C70.6073 123.227 69.9323 121.758 68.4476 118.492L68.0876 117.7Z" fill="#FFF5F0"/>
<path fill-rule="evenodd" clip-rule="evenodd" d="M35.768 115.606L35.6933 115.617C30.1195 116.461 26.3949 117.364 22.1144 118.402C21.4625 118.56 20.7976 118.721 20.1113 118.885C17.3939 119.537 15.6773 122.227 16.2716 124.928C17.2491 129.371 18.5696 135.372 19.4597 139.413C20.3542 143.474 21.6836 149.515 22.6628 153.964C23.255 156.655 25.8974 158.335 28.5359 157.681C29.066 157.55 29.5825 157.421 30.0917 157.293C33.6462 156.404 36.8392 155.605 41.7586 154.86L42.1799 154.797C56.0865 152.693 69.2638 150.699 85 150.699C100.736 150.699 113.914 152.693 127.82 154.797L128.241 154.86C132.355 155.483 137.353 156.59 141.184 157.504C143.979 158.171 146.792 156.44 147.403 153.662C148.283 149.667 149.463 144.304 150.54 139.413C151.936 133.079 153.026 128.126 153.782 124.69C154.36 122.059 152.754 119.467 150.153 118.852C145.64 117.784 139.276 116.369 134.307 115.617L134.232 115.606C119.305 113.348 103.783 111 85 111C66.2167 111 50.6949 113.348 35.768 115.606ZM35.5083 113.623C50.4201 111.367 66.0661 109 85 109C103.934 109 119.58 111.367 134.492 113.623L134.606 113.64C139.662 114.405 146.093 115.836 150.613 116.906C154.298 117.777 156.544 121.442 155.735 125.119C154.979 128.555 153.889 133.509 152.494 139.843C151.416 144.734 150.236 150.097 149.357 154.092C148.499 157.991 144.574 160.369 140.72 159.45C136.901 158.538 131.97 157.447 127.942 156.838L127.568 156.781C113.635 154.674 100.585 152.699 85 152.699C69.4149 152.699 56.3646 154.673 42.4316 156.781L42.0577 156.838C37.2364 157.567 34.1297 158.345 30.5806 159.233C30.0705 159.36 29.5513 159.49 29.0165 159.623C25.25 160.555 21.5355 158.147 20.7095 154.394C19.7304 149.944 18.401 143.904 17.5065 139.843C16.6163 135.802 15.2958 129.801 14.3183 125.358C13.4837 121.564 15.8957 117.84 19.6448 116.941C20.3258 116.777 20.9875 116.617 21.6382 116.459C25.9228 115.42 29.7292 114.497 35.3942 113.64L35.5083 113.623Z" fill="#FFE3D4"/>
<path d="M94.0217 28.4595C96.1623 27.2966 98.7535 27.3303 100.863 28.5483L133.73 47.5239C135.839 48.7419 137.164 50.9691 137.227 53.4043L138.698 110.03C138.84 115.498 132.937 119.009 128.2 116.274L44.0886 67.7121C39.3518 64.9773 39.4409 58.1099 44.2472 55.4989L94.0217 28.4595Z" fill="#FB8275"/>
<path fill-rule="evenodd" clip-rule="evenodd" d="M97.3214 103.681C109.234 95.8067 119.549 85.1198 127.174 71.9123C139.841 49.9733 142.774 25.0858 137.313 2.25001C114.807 8.93893 94.7199 23.9228 82.0534 45.8617C74.428 59.0693 70.3303 73.3455 69.4677 87.5993L97.3214 103.681Z" fill="#FFA76A"/>
<rect x="85.6614" y="75.9623" width="15.7515" height="18.1748" transform="rotate(30 85.6614 75.9623)" fill="#F38B40"/>
<path fill-rule="evenodd" clip-rule="evenodd" d="M139.729 30.2281C140.299 20.8051 139.456 11.3917 137.282 2.30341C128.325 4.96551 119.751 8.94147 111.875 14.1468L139.729 30.2281Z" fill="#F38B40"/>
<circle cx="112.492" cy="44.0306" r="12.1165" transform="rotate(30 112.492 44.0306)" fill="#FFF5F0"/>
<defs>
<radialGradient id="paint0_radial_45287_6139" cx="0" cy="0" r="1" gradientUnits="userSpaceOnUse" gradientTransform="translate(84.8268 120.5) rotate(-90) scale(156.5 156.5)">
<stop stop-color="#A997FF"/>
<stop offset="1" stop-color="#3A00B3"/>
</radialGradient>
<radialGradient id="paint1_radial_45287_6139" cx="0" cy="0" r="1" gradientUnits="userSpaceOnUse" gradientTransform="translate(84.8268 120.5) rotate(-90) scale(156.5 156.5)">
<stop stop-color="#A997FF"/>
<stop offset="1" stop-color="#3A00B3"/>
</radialGradient>
<radialGradient id="paint2_radial_45287_6139" cx="0" cy="0" r="1" gradientUnits="userSpaceOnUse" gradientTransform="translate(121.807 -36.3947) rotate(91.5009) scale(158.747)">
<stop stop-color="#A997FF"/>
<stop offset="1" stop-color="#3A00B3"/>
</radialGradient>
</defs>
</svg>
