<svg xmlns="http://www.w3.org/2000/svg" width="20" height="20" viewBox="0 0 20 20" fill="none">
  <path fill-rule="evenodd" clip-rule="evenodd" d="M0.0312944 6.53368C0.014011 6.23894 0.238936 5.98599 0.533677 5.96871L15.4389 5.09468C15.7336 5.07739 15.9866 5.30232 16.0039 5.59706L16.1482 8.05869L16.1479 8.0587C15.0453 8.12336 14.2038 9.06968 14.2684 10.1724C14.3331 11.275 15.2794 12.1165 16.3821 12.0518L16.3824 12.0518L16.5267 14.5126C16.5439 14.8073 16.319 15.0602 16.0243 15.0775L1.11906 15.9516C0.824322 15.9688 0.571375 15.7439 0.554092 15.4492L0.409793 12.9884C0.409836 12.9884 0.40988 12.9884 0.409924 12.9884C1.5126 12.9237 2.35408 11.9774 2.28942 10.8747C2.22476 9.77205 1.27844 8.93057 0.17577 8.99523C0.175726 8.99523 0.175682 8.99523 0.175638 8.99524L0.0312944 6.53368Z" fill="url(#paint0_linear_48597_18558)"/>
  <path fill-rule="evenodd" clip-rule="evenodd" d="M0.0312944 6.53368C0.014011 6.23894 0.238936 5.98599 0.533677 5.96871L15.4389 5.09468C15.7336 5.07739 15.9866 5.30232 16.0039 5.59706L16.1482 8.05869L16.1479 8.0587C15.0453 8.12336 14.2038 9.06968 14.2684 10.1724C14.3331 11.275 15.2794 12.1165 16.3821 12.0518L16.3824 12.0518L16.5267 14.5126C16.5439 14.8073 16.319 15.0602 16.0243 15.0775L1.11906 15.9516C0.824322 15.9688 0.571375 15.7439 0.554092 15.4492L0.409793 12.9884C0.409836 12.9884 0.40988 12.9884 0.409924 12.9884C1.5126 12.9237 2.35408 11.9774 2.28942 10.8747C2.22476 9.77205 1.27844 8.93057 0.17577 8.99523C0.175726 8.99523 0.175682 8.99523 0.175638 8.99524L0.0312944 6.53368Z" fill="url(#paint1_linear_48597_18558)" fill-opacity="0.2"/>
  <path d="M15.0548 6.49841L15.1305 6.49397L15.0548 6.49841ZM15.1012 7.28861L15.1306 7.3585L15.1769 7.28417L15.1012 7.28861ZM15.4324 12.9375L15.5081 12.9331L15.4535 12.8646L15.4324 12.9375ZM15.4787 13.7277L15.403 13.7321L15.4787 13.7277ZM1.45642 13.757L1.42701 13.6871L1.38072 13.7615L1.45642 13.757ZM1.12517 8.10815L1.04947 8.11259L1.10413 8.181L1.12517 8.10815ZM1.4307 6.84156C1.17985 6.85627 0.988427 7.07154 1.00314 7.32239L1.15453 7.31351C1.14473 7.14628 1.27234 7.00276 1.43957 6.99296L1.4307 6.84156ZM14.6497 6.06641L1.4307 6.84156L1.43957 6.99296L14.6586 6.21781L14.6497 6.06641ZM15.1305 6.49397C15.1158 6.24312 14.9005 6.0517 14.6497 6.06641L14.6586 6.21781C14.8258 6.208 14.9693 6.33562 14.9791 6.50285L15.1305 6.49397ZM15.1769 7.28417L15.1305 6.49397L14.9791 6.50285L15.0255 7.29305L15.1769 7.28417ZM13.3459 10.2257C13.2714 8.95479 14.0202 7.82577 15.1306 7.3585L15.0718 7.21872C13.904 7.71013 13.1161 8.89751 13.1945 10.2346L13.3459 10.2257ZM15.4535 12.8646C14.2961 12.5304 13.4204 11.4966 13.3459 10.2257L13.1945 10.2346C13.2729 11.5716 14.1942 12.6588 15.4114 13.0103L15.4535 12.8646ZM15.5544 13.7233L15.5081 12.9331L15.3567 12.9419L15.403 13.7321L15.5544 13.7233ZM15.1269 14.2041C15.3777 14.1894 15.5692 13.9741 15.5544 13.7233L15.403 13.7321C15.4129 13.8994 15.2852 14.0429 15.118 14.0527L15.1269 14.2041ZM1.90788 14.9792L15.1269 14.2041L15.118 14.0527L1.89901 14.8278L1.90788 14.9792ZM1.42706 14.5517C1.44177 14.8025 1.65704 14.9939 1.90788 14.9792L1.89901 14.8278C1.73178 14.8376 1.58826 14.71 1.57845 14.5428L1.42706 14.5517ZM1.38072 13.7615L1.42706 14.5517L1.57845 14.5428L1.53212 13.7526L1.38072 13.7615ZM3.21167 10.82C3.28619 12.0909 2.5374 13.2199 1.42701 13.6871L1.48583 13.8269C2.65361 13.3355 3.44147 12.1481 3.36306 10.8111L3.21167 10.82ZM1.10413 8.181C2.26153 8.51529 3.13714 9.54905 3.21167 10.82L3.36306 10.8111C3.28466 9.47402 2.36342 8.38686 1.14621 8.0353L1.10413 8.181ZM1.00314 7.32239L1.04947 8.11259L1.20087 8.10371L1.15453 7.31351L1.00314 7.32239Z" fill="url(#paint2_linear_48597_18558)"/>
  <g opacity="0.8" filter="url(#filter0_d_48597_18558)">
    <path d="M10.1831 8.408C10.7418 8.37524 11.2206 8.52753 11.6197 8.86488C12.0182 9.19367 12.2355 9.66622 12.2717 10.2825C12.2958 10.6934 12.2262 11.0539 12.063 11.3641C11.9081 11.6738 11.6833 11.9189 11.3889 12.0994C11.0944 12.2798 10.7664 12.3807 10.4049 12.4019C10.0023 12.4255 9.63064 12.3442 9.28994 12.158C8.95695 11.9628 8.62356 11.6903 8.28976 11.3406C8.08849 11.7045 7.82184 12.0079 7.48981 12.2507C7.15727 12.4849 6.78559 12.6141 6.37478 12.6382C5.79963 12.6719 5.3169 12.5241 4.92659 12.1949C4.53577 11.857 4.32229 11.38 4.28615 10.7637C4.26206 10.3528 4.3275 9.99251 4.48248 9.6828C4.64567 9.37261 4.8745 9.12728 5.16897 8.94682C5.46343 8.76636 5.79143 8.66553 6.15295 8.64433C6.57198 8.61975 6.94413 8.70959 7.2694 8.91384C7.60239 9.10904 7.92782 9.38629 8.24569 9.74557C8.44595 9.36449 8.7121 9.05256 9.04413 8.80977C9.38439 8.5665 9.76403 8.43258 10.1831 8.408ZM6.39931 11.5803C6.6458 11.5658 6.87956 11.4748 7.10058 11.3072C7.32932 11.1306 7.51832 10.9091 7.66759 10.6427C7.38459 10.3157 7.13947 10.0724 6.93224 9.91278C6.72501 9.75315 6.51047 9.67984 6.28863 9.69284C6.02571 9.70826 5.8171 9.80639 5.66282 9.98722C5.50803 10.1595 5.43942 10.3954 5.45698 10.695C5.47455 10.9946 5.57027 11.2209 5.74413 11.3739C5.91799 11.5269 6.13639 11.5957 6.39931 11.5803ZM10.2692 11.3533C10.5321 11.3379 10.741 11.2441 10.8958 11.0718C11.0501 10.891 11.1184 10.6508 11.1009 10.3512C11.0833 10.0516 10.9876 9.82529 10.8137 9.67229C10.6398 9.51929 10.4215 9.4505 10.1585 9.46592C9.90382 9.48085 9.65799 9.57687 9.42104 9.75396C9.1923 9.93056 9.00405 10.1649 8.85629 10.457C9.12185 10.7678 9.36211 10.9986 9.57705 11.1491C9.792 11.2997 10.0227 11.3678 10.2692 11.3533Z" fill="#ECE4FC"/>
    <path d="M10.1831 8.408C10.7418 8.37524 11.2206 8.52753 11.6197 8.86488C12.0182 9.19367 12.2355 9.66622 12.2717 10.2825C12.2958 10.6934 12.2262 11.0539 12.063 11.3641C11.9081 11.6738 11.6833 11.9189 11.3889 12.0994C11.0944 12.2798 10.7664 12.3807 10.4049 12.4019C10.0023 12.4255 9.63064 12.3442 9.28994 12.158C8.95695 11.9628 8.62356 11.6903 8.28976 11.3406C8.08849 11.7045 7.82184 12.0079 7.48981 12.2507C7.15727 12.4849 6.78559 12.6141 6.37478 12.6382C5.79963 12.6719 5.3169 12.5241 4.92659 12.1949C4.53577 11.857 4.32229 11.38 4.28615 10.7637C4.26206 10.3528 4.3275 9.99251 4.48248 9.6828C4.64567 9.37261 4.8745 9.12728 5.16897 8.94682C5.46343 8.76636 5.79143 8.66553 6.15295 8.64433C6.57198 8.61975 6.94413 8.70959 7.2694 8.91384C7.60239 9.10904 7.92782 9.38629 8.24569 9.74557C8.44595 9.36449 8.7121 9.05256 9.04413 8.80977C9.38439 8.5665 9.76403 8.43258 10.1831 8.408ZM6.39931 11.5803C6.6458 11.5658 6.87956 11.4748 7.10058 11.3072C7.32932 11.1306 7.51832 10.9091 7.66759 10.6427C7.38459 10.3157 7.13947 10.0724 6.93224 9.91278C6.72501 9.75315 6.51047 9.67984 6.28863 9.69284C6.02571 9.70826 5.8171 9.80639 5.66282 9.98722C5.50803 10.1595 5.43942 10.3954 5.45698 10.695C5.47455 10.9946 5.57027 11.2209 5.74413 11.3739C5.91799 11.5269 6.13639 11.5957 6.39931 11.5803ZM10.2692 11.3533C10.5321 11.3379 10.741 11.2441 10.8958 11.0718C11.0501 10.891 11.1184 10.6508 11.1009 10.3512C11.0833 10.0516 10.9876 9.82529 10.8137 9.67229C10.6398 9.51929 10.4215 9.4505 10.1585 9.46592C9.90382 9.48085 9.65799 9.57687 9.42104 9.75396C9.1923 9.93056 9.00405 10.1649 8.85629 10.457C9.12185 10.7678 9.36211 10.9986 9.57705 11.1491C9.792 11.2997 10.0227 11.3678 10.2692 11.3533Z" fill="url(#paint3_linear_48597_18558)"/>
  </g>
  <path d="M17.4835 4.41325C17.5017 4.32881 17.6161 4.31437 17.6547 4.39163L17.9642 5.01023C17.9766 5.03503 17.9996 5.05286 18.0267 5.05872L18.7028 5.20467C18.7873 5.2229 18.8017 5.33724 18.7244 5.37589L18.1058 5.68534C18.081 5.69775 18.0632 5.72074 18.0573 5.74785L17.9114 6.42395C17.8932 6.50839 17.7788 6.52283 17.7402 6.44557L17.4307 5.82698C17.4183 5.80217 17.3953 5.78434 17.3682 5.77849L16.6921 5.63254C16.6076 5.61431 16.5932 5.49996 16.6705 5.46131L17.2891 5.15186C17.3139 5.13946 17.3317 5.11647 17.3376 5.08936L17.4835 4.41325Z" fill="#F7B500"/>
  <path d="M14.6925 6.24532C14.7212 6.16382 14.8364 6.16382 14.8651 6.24532L15.4148 7.80802C15.424 7.83418 15.4446 7.85476 15.4707 7.86396L17.0335 8.41363C17.115 8.4423 17.115 8.55755 17.0335 8.58621L15.4707 9.13588C15.4446 9.14509 15.424 9.16566 15.4148 9.19182L14.8651 10.7545C14.8365 10.836 14.7212 10.836 14.6925 10.7545L14.1428 9.19182C14.1336 9.16566 14.1131 9.14509 14.0869 9.13588L12.5242 8.58621C12.4427 8.55755 12.4427 8.4423 12.5242 8.41363L14.0869 7.86396C14.1131 7.85476 14.1336 7.83418 14.1428 7.80802L14.6925 6.24532Z" fill="#F7B500"/>
  <defs>
    <filter id="filter0_d_48597_18558" x="4.28125" y="8.40363" width="8.41114" height="4.75929" filterUnits="userSpaceOnUse" color-interpolation-filters="sRGB">
      <feFlood flood-opacity="0" result="BackgroundImageFix"/>
      <feColorMatrix in="SourceAlpha" type="matrix" values="0 0 0 0 0 0 0 0 0 0 0 0 0 0 0 0 0 0 127 0" result="hardAlpha"/>
      <feOffset dx="0.416023" dy="0.520029"/>
      <feComposite in2="hardAlpha" operator="out"/>
      <feColorMatrix type="matrix" values="0 0 0 0 0 0 0 0 0 0 0 0 0 0 0 0 0 0 0.2 0"/>
      <feBlend mode="normal" in2="BackgroundImageFix" result="effect1_dropShadow_48597_18558"/>
      <feBlend mode="normal" in="SourceGraphic" in2="effect1_dropShadow_48597_18558" result="shape"/>
    </filter>
    <linearGradient id="paint0_linear_48597_18558" x1="10.3975" y1="7.76181" x2="11.4466" y2="16.6374" gradientUnits="userSpaceOnUse">
      <stop stop-color="#8749FD"/>
      <stop offset="1" stop-color="#712DF2"/>
    </linearGradient>
    <linearGradient id="paint1_linear_48597_18558" x1="8.70928" y1="11.9884" x2="3.44865" y2="5.50491" gradientUnits="userSpaceOnUse">
      <stop stop-color="white" stop-opacity="0"/>
      <stop offset="1" stop-color="white"/>
    </linearGradient>
    <linearGradient id="paint2_linear_48597_18558" x1="-1.21869" y1="6.55146" x2="22.7718" y2="14.1079" gradientUnits="userSpaceOnUse">
      <stop stop-color="#C684EE" stop-opacity="0.7"/>
      <stop offset="0.525034" stop-color="#AF7CF0"/>
      <stop offset="1" stop-color="#C684EE" stop-opacity="0.7"/>
    </linearGradient>
    <linearGradient id="paint3_linear_48597_18558" x1="8.16184" y1="8.52653" x2="8.396" y2="12.5197" gradientUnits="userSpaceOnUse">
      <stop stop-color="#F4EEF6"/>
      <stop offset="1" stop-color="#F1DDFF"/>
    </linearGradient>
  </defs>
</svg>