<svg width="352" height="240" viewBox="0 0 352 240" fill="none" xmlns="http://www.w3.org/2000/svg">
<g clip-path="url(#clip0_55747_104685)">
<rect width="352" height="240" fill="white"/>
<g filter="url(#filter0_f_55747_104685)">
<circle cx="262" cy="90" r="150" fill="#008862" fill-opacity="0.16"/>
</g>
<g filter="url(#filter1_f_55747_104685)">
<circle cx="72" cy="220" r="200" fill="#7A59FF" fill-opacity="0.16"/>
</g>
<g filter="url(#filter2_d_55747_104685)">
<rect x="24" y="60" width="304" height="120" rx="16" fill="white" fill-opacity="0.84"/>
<rect x="24.5" y="60.5" width="303" height="119" rx="15.5" stroke="#6128FF"/>
<rect x="40" y="72" width="272" height="24" fill="#0072F2" fill-opacity="0.16"/>
<rect x="40" y="96" width="272" height="24" fill="#0072F2" fill-opacity="0.16"/>
<rect x="40" y="120" width="48" height="24" fill="#0072F2" fill-opacity="0.16"/>
<path d="M41.2 89V77.8H44.528C45.8293 77.8 46.9067 78.0293 47.76 78.488C48.6133 78.936 49.2427 79.5813 49.648 80.424C50.064 81.256 50.272 82.2587 50.272 83.432C50.272 84.584 50.064 85.576 49.648 86.408C49.2427 87.24 48.6133 87.88 47.76 88.328C46.9067 88.776 45.8293 89 44.528 89H41.2ZM42.544 87.88H44.496C45.5733 87.88 46.432 87.704 47.072 87.352C47.7227 86.9893 48.1867 86.4773 48.464 85.816C48.7413 85.144 48.88 84.3493 48.88 83.432C48.88 82.4933 48.7413 81.688 48.464 81.016C48.1867 80.344 47.7227 79.8267 47.072 79.464C46.432 79.1013 45.5733 78.92 44.496 78.92H42.544V87.88ZM55.7029 89.192C54.9562 89.192 54.2895 89.016 53.7029 88.664C53.1162 88.312 52.6522 87.8213 52.3109 87.192C51.9802 86.5627 51.8149 85.8267 51.8149 84.984C51.8149 84.1307 51.9802 83.3947 52.3109 82.776C52.6415 82.1467 53.1002 81.656 53.6869 81.304C54.2842 80.952 54.9669 80.776 55.7349 80.776C56.5242 80.776 57.1962 80.952 57.7509 81.304C58.3055 81.656 58.7269 82.1147 59.0149 82.68C59.3135 83.2453 59.4629 83.8693 59.4629 84.552C59.4629 84.6587 59.4629 84.7707 59.4629 84.888C59.4629 85.0053 59.4575 85.1387 59.4469 85.288H52.8229V84.248H58.1349C58.1029 83.512 57.8575 82.9413 57.3989 82.536C56.9509 82.12 56.3855 81.912 55.7029 81.912C55.2549 81.912 54.8335 82.0187 54.4389 82.232C54.0442 82.4347 53.7242 82.7333 53.4789 83.128C53.2442 83.5227 53.1269 84.0187 53.1269 84.616V85.064C53.1269 85.7253 53.2495 86.28 53.4949 86.728C53.7402 87.1653 54.0549 87.496 54.4389 87.72C54.8335 87.944 55.2549 88.056 55.7029 88.056C56.2682 88.056 56.7322 87.9333 57.0949 87.688C57.4682 87.432 57.7402 87.0853 57.9109 86.648H59.2389C59.1002 87.1387 58.8709 87.576 58.5509 87.96C58.2309 88.3333 57.8309 88.632 57.3509 88.856C56.8815 89.08 56.3322 89.192 55.7029 89.192ZM63.8846 89.192C63.234 89.192 62.69 89.08 62.2526 88.856C61.8153 88.6213 61.49 88.3173 61.2766 87.944C61.0633 87.56 60.9566 87.1493 60.9566 86.712C60.9566 86.168 61.0953 85.7093 61.3726 85.336C61.6606 84.952 62.0606 84.664 62.5726 84.472C63.0953 84.2693 63.7033 84.168 64.3966 84.168H66.5406C66.5406 83.6667 66.4606 83.2507 66.3006 82.92C66.1513 82.5893 65.9273 82.3387 65.6286 82.168C65.33 81.9973 64.9673 81.912 64.5406 81.912C64.0286 81.912 63.586 82.04 63.2126 82.296C62.8393 82.552 62.61 82.9307 62.5246 83.432H61.1486C61.2126 82.856 61.4046 82.376 61.7246 81.992C62.0553 81.5973 62.4713 81.2987 62.9726 81.096C63.474 80.8827 63.9966 80.776 64.5406 80.776C65.2873 80.776 65.906 80.9147 66.3966 81.192C66.8873 81.4587 67.2553 81.8373 67.5006 82.328C67.7566 82.808 67.8846 83.3733 67.8846 84.024V89H66.6846L66.6046 87.576C66.498 87.8 66.3593 88.0133 66.1886 88.216C66.0286 88.408 65.8366 88.5787 65.6126 88.728C65.3993 88.8667 65.1486 88.9787 64.8606 89.064C64.5726 89.1493 64.2473 89.192 63.8846 89.192ZM64.0926 88.056C64.466 88.056 64.802 87.9813 65.1006 87.832C65.41 87.672 65.6713 87.4587 65.8846 87.192C66.098 86.9253 66.258 86.6267 66.3646 86.296C66.482 85.9547 66.5406 85.608 66.5406 85.256V85.208H64.5086C63.9966 85.208 63.5806 85.272 63.2606 85.4C62.9406 85.5173 62.7113 85.688 62.5726 85.912C62.434 86.1253 62.3646 86.3707 62.3646 86.648C62.3646 86.936 62.4286 87.1867 62.5566 87.4C62.6953 87.6027 62.8926 87.7627 63.1486 87.88C63.4046 87.9973 63.7193 88.056 64.0926 88.056ZM69.9478 89V80.968H71.1638L71.2758 82.504C71.4571 82.1413 71.6864 81.832 71.9638 81.576C72.2518 81.32 72.5931 81.1227 72.9878 80.984C73.3824 80.8453 73.8304 80.776 74.3318 80.776V82.184H73.8678C73.5264 82.184 73.2011 82.232 72.8918 82.328C72.5824 82.4133 72.3051 82.5573 72.0598 82.76C71.8251 82.952 71.6384 83.224 71.4998 83.576C71.3611 83.928 71.2918 84.36 71.2918 84.872V89H69.9478ZM84.2164 89.192C83.4484 89.192 82.7497 89.0373 82.1204 88.728C81.5017 88.4187 81.0057 87.9493 80.6324 87.32C80.259 86.68 80.0724 85.864 80.0724 84.872V77.8H81.4164V84.888C81.4164 85.6133 81.5337 86.2053 81.7684 86.664C82.0137 87.1227 82.3497 87.4587 82.7764 87.672C83.203 87.8853 83.6937 87.992 84.2484 87.992C84.8137 87.992 85.3044 87.8853 85.7204 87.672C86.1364 87.4587 86.4617 87.1227 86.6964 86.664C86.931 86.2053 87.0484 85.6133 87.0484 84.888V77.8H88.3924V84.872C88.3924 85.864 88.2057 86.68 87.8324 87.32C87.459 87.9493 86.9577 88.4187 86.3284 88.728C85.699 89.0373 84.995 89.192 84.2164 89.192ZM93.6284 89.192C92.9777 89.192 92.4017 89.0853 91.9004 88.872C91.399 88.648 90.999 88.3333 90.7004 87.928C90.4124 87.5227 90.231 87.048 90.1564 86.504H91.5324C91.5964 86.7813 91.7137 87.0427 91.8844 87.288C92.055 87.5227 92.2844 87.7093 92.5724 87.848C92.871 87.9867 93.2284 88.056 93.6444 88.056C94.0284 88.056 94.343 88.0027 94.5884 87.896C94.8337 87.7787 95.015 87.624 95.1324 87.432C95.2497 87.24 95.3084 87.032 95.3084 86.808C95.3084 86.488 95.2284 86.2427 95.0684 86.072C94.919 85.9013 94.695 85.768 94.3964 85.672C94.0977 85.5653 93.7404 85.4747 93.3244 85.4C92.9724 85.336 92.6257 85.2507 92.2844 85.144C91.9537 85.0373 91.655 84.8987 91.3884 84.728C91.1217 84.5573 90.9084 84.344 90.7484 84.088C90.5884 83.8213 90.5084 83.5067 90.5084 83.144C90.5084 82.6853 90.6257 82.28 90.8604 81.928C91.1057 81.5653 91.4417 81.2827 91.8684 81.08C92.3057 80.8773 92.823 80.776 93.4204 80.776C94.2737 80.776 94.967 80.984 95.5004 81.4C96.0444 81.816 96.359 82.4187 96.4444 83.208H95.1164C95.0737 82.8027 94.903 82.488 94.6044 82.264C94.3057 82.0293 93.9057 81.912 93.4044 81.912C92.903 81.912 92.519 82.0133 92.2524 82.216C91.9964 82.4187 91.8684 82.6853 91.8684 83.016C91.8684 83.2293 91.9377 83.416 92.0764 83.576C92.2257 83.736 92.4444 83.8747 92.7324 83.992C93.0204 84.0987 93.367 84.1947 93.7724 84.28C94.295 84.376 94.775 84.504 95.2124 84.664C95.6497 84.824 96.0017 85.0587 96.2684 85.368C96.5457 85.6773 96.6844 86.12 96.6844 86.696C96.695 87.1973 96.5724 87.6347 96.3164 88.008C96.071 88.3813 95.719 88.6747 95.2604 88.888C94.8017 89.0907 94.2577 89.192 93.6284 89.192ZM102.172 89.192C101.425 89.192 100.758 89.016 100.172 88.664C99.585 88.312 99.121 87.8213 98.7796 87.192C98.449 86.5627 98.2836 85.8267 98.2836 84.984C98.2836 84.1307 98.449 83.3947 98.7796 82.776C99.1103 82.1467 99.569 81.656 100.156 81.304C100.753 80.952 101.436 80.776 102.204 80.776C102.993 80.776 103.665 80.952 104.22 81.304C104.774 81.656 105.196 82.1147 105.484 82.68C105.782 83.2453 105.932 83.8693 105.932 84.552C105.932 84.6587 105.932 84.7707 105.932 84.888C105.932 85.0053 105.926 85.1387 105.916 85.288H99.2916V84.248H104.604C104.572 83.512 104.326 82.9413 103.868 82.536C103.42 82.12 102.854 81.912 102.172 81.912C101.724 81.912 101.302 82.0187 100.908 82.232C100.513 82.4347 100.193 82.7333 99.9476 83.128C99.713 83.5227 99.5956 84.0187 99.5956 84.616V85.064C99.5956 85.7253 99.7183 86.28 99.9636 86.728C100.209 87.1653 100.524 87.496 100.908 87.72C101.302 87.944 101.724 88.056 102.172 88.056C102.737 88.056 103.201 87.9333 103.564 87.688C103.937 87.432 104.209 87.0853 104.38 86.648H105.708C105.569 87.1387 105.34 87.576 105.02 87.96C104.7 88.3333 104.3 88.632 103.82 88.856C103.35 89.08 102.801 89.192 102.172 89.192ZM107.713 89V80.968H108.929L109.041 82.504C109.223 82.1413 109.452 81.832 109.729 81.576C110.017 81.32 110.359 81.1227 110.753 80.984C111.148 80.8453 111.596 80.776 112.097 80.776V82.184H111.633C111.292 82.184 110.967 82.232 110.657 82.328C110.348 82.4133 110.071 82.5573 109.825 82.76C109.591 82.952 109.404 83.224 109.265 83.576C109.127 83.928 109.057 84.36 109.057 84.872V89H107.713ZM112.064 90.968L112.992 87.432H114.384L112.992 90.968H112.064ZM43.808 113V102.904H40.464V101.8H48.496V102.904H45.152V113H43.808ZM50.0728 113V101.48H51.4168V106.328C51.6941 105.837 52.0728 105.459 52.5528 105.192C53.0328 104.915 53.5661 104.776 54.1528 104.776C54.7714 104.776 55.3048 104.904 55.7528 105.16C56.2114 105.405 56.5634 105.784 56.8088 106.296C57.0648 106.808 57.1927 107.453 57.1927 108.232V113H55.8648V108.376C55.8648 107.565 55.6941 106.957 55.3528 106.552C55.0114 106.136 54.5154 105.928 53.8648 105.928C53.4061 105.928 52.9901 106.04 52.6168 106.264C52.2541 106.477 51.9608 106.797 51.7368 107.224C51.5234 107.64 51.4168 108.152 51.4168 108.76V113H50.0728ZM61.9003 113.192C61.2496 113.192 60.7056 113.08 60.2682 112.856C59.8309 112.621 59.5056 112.317 59.2923 111.944C59.0789 111.56 58.9723 111.149 58.9723 110.712C58.9723 110.168 59.1109 109.709 59.3883 109.336C59.6763 108.952 60.0763 108.664 60.5883 108.472C61.1109 108.269 61.7189 108.168 62.4123 108.168H64.5563C64.5563 107.667 64.4763 107.251 64.3163 106.92C64.1669 106.589 63.9429 106.339 63.6443 106.168C63.3456 105.997 62.9829 105.912 62.5563 105.912C62.0443 105.912 61.6016 106.04 61.2283 106.296C60.8549 106.552 60.6256 106.931 60.5403 107.432H59.1643C59.2283 106.856 59.4203 106.376 59.7403 105.992C60.0709 105.597 60.4869 105.299 60.9883 105.096C61.4896 104.883 62.0123 104.776 62.5563 104.776C63.3029 104.776 63.9216 104.915 64.4123 105.192C64.9029 105.459 65.2709 105.837 65.5163 106.328C65.7723 106.808 65.9003 107.373 65.9003 108.024V113H64.7003L64.6203 111.576C64.5136 111.8 64.3749 112.013 64.2043 112.216C64.0443 112.408 63.8523 112.579 63.6283 112.728C63.4149 112.867 63.1643 112.979 62.8763 113.064C62.5883 113.149 62.2629 113.192 61.9003 113.192ZM62.1083 112.056C62.4816 112.056 62.8176 111.981 63.1163 111.832C63.4256 111.672 63.6869 111.459 63.9003 111.192C64.1136 110.925 64.2736 110.627 64.3803 110.296C64.4976 109.955 64.5563 109.608 64.5563 109.256V109.208H62.5243C62.0123 109.208 61.5963 109.272 61.2763 109.4C60.9563 109.517 60.7269 109.688 60.5883 109.912C60.4496 110.125 60.3803 110.371 60.3803 110.648C60.3803 110.936 60.4443 111.187 60.5723 111.4C60.7109 111.603 60.9083 111.763 61.1643 111.88C61.4203 111.997 61.7349 112.056 62.1083 112.056ZM67.9634 113V104.968H69.1794L69.2594 106.376C69.5154 105.875 69.878 105.485 70.3474 105.208C70.8274 104.92 71.3714 104.776 71.9794 104.776C72.6087 104.776 73.1527 104.899 73.6114 105.144C74.07 105.389 74.4274 105.768 74.6834 106.28C74.9394 106.792 75.0674 107.437 75.0674 108.216V113H73.7234V108.36C73.7234 107.549 73.5474 106.941 73.1954 106.536C72.8434 106.131 72.3367 105.928 71.6754 105.928C71.2274 105.928 70.822 106.04 70.4594 106.264C70.1074 106.477 69.8247 106.792 69.6114 107.208C69.4087 107.624 69.3074 108.131 69.3074 108.728V113H67.9634ZM82.1113 113L78.2553 108.6L81.7593 104.968H83.4073L79.3913 109.08L79.4073 108.12L83.8233 113H82.1113ZM77.1353 113V101.48H78.4793V113H77.1353ZM90.3278 116.52L92.2958 112.104H91.8318L88.6798 104.968H90.1358L92.7598 111.096L95.5278 104.968H96.9198L91.7358 116.52H90.3278ZM101.204 113.192C100.458 113.192 99.7857 113.021 99.1884 112.68C98.591 112.328 98.1164 111.837 97.7644 111.208C97.423 110.579 97.2524 109.837 97.2524 108.984C97.2524 108.131 97.4284 107.389 97.7804 106.76C98.1324 106.131 98.607 105.645 99.2044 105.304C99.8124 104.952 100.49 104.776 101.236 104.776C101.994 104.776 102.671 104.952 103.268 105.304C103.866 105.645 104.335 106.131 104.676 106.76C105.018 107.389 105.188 108.131 105.188 108.984C105.188 109.837 105.012 110.579 104.66 111.208C104.319 111.837 103.844 112.328 103.236 112.68C102.639 113.021 101.962 113.192 101.204 113.192ZM101.204 112.04C101.674 112.04 102.106 111.928 102.5 111.704C102.895 111.469 103.21 111.128 103.444 110.68C103.69 110.221 103.812 109.656 103.812 108.984C103.812 108.301 103.695 107.736 103.46 107.288C103.226 106.84 102.911 106.504 102.516 106.28C102.122 106.045 101.695 105.928 101.236 105.928C100.788 105.928 100.362 106.045 99.9564 106.28C99.5617 106.504 99.2417 106.84 98.9964 107.288C98.751 107.736 98.6284 108.301 98.6284 108.984C98.6284 109.656 98.751 110.221 98.9964 110.68C99.2417 111.128 99.5564 111.469 99.9404 111.704C100.335 111.928 100.756 112.04 101.204 112.04ZM110.001 113.192C109.382 113.192 108.838 113.069 108.369 112.824C107.91 112.579 107.553 112.2 107.297 111.688C107.051 111.176 106.929 110.531 106.929 109.752V104.968H108.273V109.608C108.273 110.419 108.449 111.027 108.801 111.432C109.153 111.837 109.654 112.04 110.305 112.04C110.753 112.04 111.158 111.933 111.521 111.72C111.883 111.496 112.166 111.176 112.369 110.76C112.582 110.344 112.689 109.837 112.689 109.24V104.968H114.033V113H112.817L112.737 111.592C112.481 112.093 112.113 112.488 111.633 112.776C111.153 113.053 110.609 113.192 110.001 113.192ZM120.959 113V103.688C120.959 103.176 121.044 102.76 121.215 102.44C121.385 102.109 121.636 101.869 121.967 101.72C122.308 101.56 122.724 101.48 123.215 101.48H124.095V102.632H123.423C123.017 102.632 122.729 102.712 122.559 102.872C122.388 103.032 122.303 103.315 122.303 103.72V113H120.959ZM119.727 106.104V104.968H124.303V106.104H119.727ZM129.22 113.192C128.473 113.192 127.801 113.021 127.204 112.68C126.607 112.328 126.132 111.837 125.78 111.208C125.439 110.579 125.268 109.837 125.268 108.984C125.268 108.131 125.444 107.389 125.796 106.76C126.148 106.131 126.623 105.645 127.22 105.304C127.828 104.952 128.505 104.776 129.252 104.776C130.009 104.776 130.687 104.952 131.284 105.304C131.881 105.645 132.351 106.131 132.692 106.76C133.033 107.389 133.204 108.131 133.204 108.984C133.204 109.837 133.028 110.579 132.676 111.208C132.335 111.837 131.86 112.328 131.252 112.68C130.655 113.021 129.977 113.192 129.22 113.192ZM129.22 112.04C129.689 112.04 130.121 111.928 130.516 111.704C130.911 111.469 131.225 111.128 131.46 110.68C131.705 110.221 131.828 109.656 131.828 108.984C131.828 108.301 131.711 107.736 131.476 107.288C131.241 106.84 130.927 106.504 130.532 106.28C130.137 106.045 129.711 105.928 129.252 105.928C128.804 105.928 128.377 106.045 127.972 106.28C127.577 106.504 127.257 106.84 127.012 107.288C126.767 107.736 126.644 108.301 126.644 108.984C126.644 109.656 126.767 110.221 127.012 110.68C127.257 111.128 127.572 111.469 127.956 111.704C128.351 111.928 128.772 112.04 129.22 112.04ZM135.088 113V104.968H136.304L136.416 106.504C136.598 106.141 136.827 105.832 137.104 105.576C137.392 105.32 137.734 105.123 138.128 104.984C138.523 104.845 138.971 104.776 139.472 104.776V106.184H139.008C138.667 106.184 138.342 106.232 138.032 106.328C137.723 106.413 137.446 106.557 137.2 106.76C136.966 106.952 136.779 107.224 136.64 107.576C136.502 107.928 136.432 108.36 136.432 108.872V113H135.088ZM148.877 113.192C148.12 113.192 147.437 113.016 146.829 112.664C146.232 112.312 145.757 111.821 145.405 111.192C145.064 110.563 144.893 109.827 144.893 108.984C144.893 108.141 145.064 107.405 145.405 106.776C145.757 106.147 146.232 105.656 146.829 105.304C147.437 104.952 148.12 104.776 148.877 104.776C149.837 104.776 150.637 105.027 151.277 105.528C151.917 106.019 152.322 106.68 152.493 107.512H151.117C151.01 107.011 150.749 106.621 150.333 106.344C149.917 106.067 149.426 105.928 148.861 105.928C148.402 105.928 147.976 106.045 147.581 106.28C147.197 106.504 146.882 106.845 146.637 107.304C146.392 107.752 146.269 108.312 146.269 108.984C146.269 109.485 146.338 109.928 146.477 110.312C146.626 110.696 146.818 111.021 147.053 111.288C147.288 111.544 147.56 111.736 147.869 111.864C148.189 111.992 148.52 112.056 148.861 112.056C149.245 112.056 149.592 111.997 149.901 111.88C150.21 111.752 150.472 111.571 150.685 111.336C150.898 111.091 151.042 110.797 151.117 110.456H152.493C152.322 111.277 151.912 111.939 151.261 112.44C150.621 112.941 149.826 113.192 148.877 113.192ZM154.37 113V101.48H155.714V106.328C155.991 105.837 156.37 105.459 156.85 105.192C157.33 104.915 157.863 104.776 158.45 104.776C159.068 104.776 159.602 104.904 160.05 105.16C160.508 105.405 160.86 105.784 161.106 106.296C161.362 106.808 161.49 107.453 161.49 108.232V113H160.162V108.376C160.162 107.565 159.991 106.957 159.65 106.552C159.308 106.136 158.812 105.928 158.162 105.928C157.703 105.928 157.287 106.04 156.914 106.264C156.551 106.477 156.258 106.797 156.034 107.224C155.82 107.64 155.714 108.152 155.714 108.76V113H154.37ZM167.173 113.192C166.426 113.192 165.754 113.021 165.157 112.68C164.56 112.328 164.085 111.837 163.733 111.208C163.392 110.579 163.221 109.837 163.221 108.984C163.221 108.131 163.397 107.389 163.749 106.76C164.101 106.131 164.576 105.645 165.173 105.304C165.781 104.952 166.458 104.776 167.205 104.776C167.962 104.776 168.64 104.952 169.237 105.304C169.834 105.645 170.304 106.131 170.645 106.76C170.986 107.389 171.157 108.131 171.157 108.984C171.157 109.837 170.981 110.579 170.629 111.208C170.288 111.837 169.813 112.328 169.205 112.68C168.608 113.021 167.93 113.192 167.173 113.192ZM167.173 112.04C167.642 112.04 168.074 111.928 168.469 111.704C168.864 111.469 169.178 111.128 169.413 110.68C169.658 110.221 169.781 109.656 169.781 108.984C169.781 108.301 169.664 107.736 169.429 107.288C169.194 106.84 168.88 106.504 168.485 106.28C168.09 106.045 167.664 105.928 167.205 105.928C166.757 105.928 166.33 106.045 165.925 106.28C165.53 106.504 165.21 106.84 164.965 107.288C164.72 107.736 164.597 108.301 164.597 108.984C164.597 109.656 164.72 110.221 164.965 110.68C165.21 111.128 165.525 111.469 165.909 111.704C166.304 111.928 166.725 112.04 167.173 112.04ZM176.658 113.192C175.911 113.192 175.239 113.021 174.642 112.68C174.044 112.328 173.57 111.837 173.218 111.208C172.876 110.579 172.706 109.837 172.706 108.984C172.706 108.131 172.882 107.389 173.234 106.76C173.586 106.131 174.06 105.645 174.658 105.304C175.266 104.952 175.943 104.776 176.69 104.776C177.447 104.776 178.124 104.952 178.722 105.304C179.319 105.645 179.788 106.131 180.13 106.76C180.471 107.389 180.642 108.131 180.642 108.984C180.642 109.837 180.466 110.579 180.114 111.208C179.772 111.837 179.298 112.328 178.69 112.68C178.092 113.021 177.415 113.192 176.658 113.192ZM176.658 112.04C177.127 112.04 177.559 111.928 177.954 111.704C178.348 111.469 178.663 111.128 178.898 110.68C179.143 110.221 179.266 109.656 179.266 108.984C179.266 108.301 179.148 107.736 178.914 107.288C178.679 106.84 178.364 106.504 177.97 106.28C177.575 106.045 177.148 105.928 176.69 105.928C176.242 105.928 175.815 106.045 175.41 106.28C175.015 106.504 174.695 106.84 174.45 107.288C174.204 107.736 174.082 108.301 174.082 108.984C174.082 109.656 174.204 110.221 174.45 110.68C174.695 111.128 175.01 111.469 175.394 111.704C175.788 111.928 176.21 112.04 176.658 112.04ZM185.566 113.192C184.915 113.192 184.339 113.085 183.838 112.872C183.337 112.648 182.937 112.333 182.638 111.928C182.35 111.523 182.169 111.048 182.094 110.504H183.47C183.534 110.781 183.651 111.043 183.822 111.288C183.993 111.523 184.222 111.709 184.51 111.848C184.809 111.987 185.166 112.056 185.582 112.056C185.966 112.056 186.281 112.003 186.526 111.896C186.771 111.779 186.953 111.624 187.07 111.432C187.187 111.24 187.246 111.032 187.246 110.808C187.246 110.488 187.166 110.243 187.006 110.072C186.857 109.901 186.633 109.768 186.334 109.672C186.035 109.565 185.678 109.475 185.262 109.4C184.91 109.336 184.563 109.251 184.222 109.144C183.891 109.037 183.593 108.899 183.326 108.728C183.059 108.557 182.846 108.344 182.686 108.088C182.526 107.821 182.446 107.507 182.446 107.144C182.446 106.685 182.563 106.28 182.798 105.928C183.043 105.565 183.379 105.283 183.806 105.08C184.243 104.877 184.761 104.776 185.358 104.776C186.211 104.776 186.905 104.984 187.438 105.4C187.982 105.816 188.297 106.419 188.382 107.208H187.054C187.011 106.803 186.841 106.488 186.542 106.264C186.243 106.029 185.843 105.912 185.342 105.912C184.841 105.912 184.457 106.013 184.19 106.216C183.934 106.419 183.806 106.685 183.806 107.016C183.806 107.229 183.875 107.416 184.014 107.576C184.163 107.736 184.382 107.875 184.67 107.992C184.958 108.099 185.305 108.195 185.71 108.28C186.233 108.376 186.713 108.504 187.15 108.664C187.587 108.824 187.939 109.059 188.206 109.368C188.483 109.677 188.622 110.12 188.622 110.696C188.633 111.197 188.51 111.635 188.254 112.008C188.009 112.381 187.657 112.675 187.198 112.888C186.739 113.091 186.195 113.192 185.566 113.192ZM190.701 113V104.968H192.045V113H190.701ZM191.373 103.24C191.106 103.24 190.882 103.155 190.701 102.984C190.53 102.803 190.445 102.579 190.445 102.312C190.445 102.045 190.53 101.832 190.701 101.672C190.882 101.501 191.106 101.416 191.373 101.416C191.629 101.416 191.848 101.501 192.029 101.672C192.21 101.832 192.301 102.045 192.301 102.312C192.301 102.579 192.21 102.803 192.029 102.984C191.848 103.155 191.629 103.24 191.373 103.24ZM194.385 113V104.968H195.601L195.681 106.376C195.937 105.875 196.3 105.485 196.769 105.208C197.249 104.92 197.793 104.776 198.401 104.776C199.031 104.776 199.575 104.899 200.033 105.144C200.492 105.389 200.849 105.768 201.105 106.28C201.361 106.792 201.489 107.437 201.489 108.216V113H200.145V108.36C200.145 107.549 199.969 106.941 199.617 106.536C199.265 106.131 198.759 105.928 198.097 105.928C197.649 105.928 197.244 106.04 196.881 106.264C196.529 106.477 196.247 106.792 196.033 107.208C195.831 107.624 195.729 108.131 195.729 108.728V113H194.385ZM206.741 116.712C206.016 116.712 205.376 116.616 204.821 116.424C204.266 116.243 203.834 115.96 203.525 115.576C203.216 115.192 203.061 114.717 203.061 114.152C203.061 113.907 203.109 113.645 203.205 113.368C203.312 113.101 203.488 112.835 203.733 112.568C203.989 112.301 204.346 112.061 204.805 111.848L205.717 112.392C205.162 112.627 204.8 112.893 204.629 113.192C204.458 113.491 204.373 113.768 204.373 114.024C204.373 114.376 204.474 114.669 204.677 114.904C204.88 115.139 205.157 115.315 205.509 115.432C205.872 115.549 206.282 115.608 206.741 115.608C207.2 115.608 207.594 115.539 207.925 115.4C208.256 115.272 208.512 115.091 208.693 114.856C208.874 114.632 208.965 114.36 208.965 114.04C208.965 113.677 208.826 113.368 208.549 113.112C208.272 112.867 207.749 112.723 206.981 112.68C206.341 112.637 205.808 112.579 205.381 112.504C204.965 112.429 204.618 112.344 204.341 112.248C204.064 112.141 203.829 112.024 203.637 111.896C203.456 111.768 203.29 111.635 203.141 111.496V111.128L204.693 109.576L205.861 109.992L204.261 111.448L204.469 110.888C204.586 110.973 204.698 111.053 204.805 111.128C204.912 111.192 205.056 111.251 205.237 111.304C205.418 111.357 205.669 111.411 205.989 111.464C206.309 111.507 206.741 111.549 207.285 111.592C208.01 111.645 208.592 111.773 209.029 111.976C209.477 112.179 209.797 112.451 209.989 112.792C210.192 113.133 210.293 113.533 210.293 113.992C210.293 114.451 210.165 114.883 209.909 115.288C209.664 115.704 209.28 116.045 208.757 116.312C208.234 116.579 207.562 116.712 206.741 116.712ZM206.725 110.472C206.053 110.472 205.482 110.349 205.013 110.104C204.544 109.848 204.186 109.507 203.941 109.08C203.696 108.643 203.573 108.157 203.573 107.624C203.573 107.091 203.696 106.611 203.941 106.184C204.186 105.757 204.544 105.416 205.013 105.16C205.482 104.904 206.053 104.776 206.725 104.776C207.408 104.776 207.984 104.904 208.453 105.16C208.922 105.416 209.28 105.757 209.525 106.184C209.77 106.611 209.893 107.091 209.893 107.624C209.893 108.157 209.77 108.643 209.525 109.08C209.28 109.507 208.922 109.848 208.453 110.104C207.984 110.349 207.408 110.472 206.725 110.472ZM206.725 109.368C207.301 109.368 207.754 109.224 208.085 108.936C208.426 108.637 208.597 108.2 208.597 107.624C208.597 107.069 208.426 106.643 208.085 106.344C207.754 106.045 207.301 105.896 206.725 105.896C206.16 105.896 205.706 106.045 205.365 106.344C205.024 106.643 204.853 107.069 204.853 107.624C204.853 108.2 205.024 108.637 205.365 108.936C205.706 109.224 206.16 109.368 206.725 109.368ZM208.037 106.104L207.637 104.968H210.933V105.976L208.037 106.104ZM219.881 113C219.401 113 218.985 112.925 218.633 112.776C218.281 112.627 218.009 112.376 217.817 112.024C217.636 111.661 217.545 111.176 217.545 110.568V106.104H216.153V104.968H217.545L217.721 103.032H218.889V104.968H221.241V106.104H218.889V110.568C218.889 111.069 218.991 111.411 219.193 111.592C219.396 111.763 219.753 111.848 220.265 111.848H221.129V113H219.881ZM226.361 113.192C225.614 113.192 224.942 113.021 224.345 112.68C223.747 112.328 223.273 111.837 222.921 111.208C222.579 110.579 222.409 109.837 222.409 108.984C222.409 108.131 222.585 107.389 222.937 106.76C223.289 106.131 223.763 105.645 224.361 105.304C224.969 104.952 225.646 104.776 226.393 104.776C227.15 104.776 227.827 104.952 228.425 105.304C229.022 105.645 229.491 106.131 229.833 106.76C230.174 107.389 230.345 108.131 230.345 108.984C230.345 109.837 230.169 110.579 229.817 111.208C229.475 111.837 229.001 112.328 228.393 112.68C227.795 113.021 227.118 113.192 226.361 113.192ZM226.361 112.04C226.83 112.04 227.262 111.928 227.657 111.704C228.051 111.469 228.366 111.128 228.601 110.68C228.846 110.221 228.969 109.656 228.969 108.984C228.969 108.301 228.851 107.736 228.617 107.288C228.382 106.84 228.067 106.504 227.673 106.28C227.278 106.045 226.851 105.928 226.393 105.928C225.945 105.928 225.518 106.045 225.113 106.28C224.718 106.504 224.398 106.84 224.153 107.288C223.907 107.736 223.785 108.301 223.785 108.984C223.785 109.656 223.907 110.221 224.153 110.68C224.398 111.128 224.713 111.469 225.097 111.704C225.491 111.928 225.913 112.04 226.361 112.04ZM239.407 113.192C238.788 113.192 238.244 113.069 237.775 112.824C237.316 112.579 236.959 112.2 236.703 111.688C236.458 111.176 236.335 110.531 236.335 109.752V104.968H237.679V109.608C237.679 110.419 237.855 111.027 238.207 111.432C238.559 111.837 239.06 112.04 239.711 112.04C240.159 112.04 240.564 111.933 240.927 111.72C241.29 111.496 241.572 111.176 241.775 110.76C241.988 110.344 242.095 109.837 242.095 109.24V104.968H243.439V113H242.223L242.143 111.592C241.887 112.093 241.519 112.488 241.039 112.776C240.559 113.053 240.015 113.192 239.407 113.192ZM248.691 113.192C248.04 113.192 247.464 113.085 246.963 112.872C246.462 112.648 246.062 112.333 245.763 111.928C245.475 111.523 245.294 111.048 245.219 110.504H246.595C246.659 110.781 246.776 111.043 246.947 111.288C247.118 111.523 247.347 111.709 247.635 111.848C247.934 111.987 248.291 112.056 248.707 112.056C249.091 112.056 249.406 112.003 249.651 111.896C249.896 111.779 250.078 111.624 250.195 111.432C250.312 111.24 250.371 111.032 250.371 110.808C250.371 110.488 250.291 110.243 250.131 110.072C249.982 109.901 249.758 109.768 249.459 109.672C249.16 109.565 248.803 109.475 248.387 109.4C248.035 109.336 247.688 109.251 247.347 109.144C247.016 109.037 246.718 108.899 246.451 108.728C246.184 108.557 245.971 108.344 245.811 108.088C245.651 107.821 245.571 107.507 245.571 107.144C245.571 106.685 245.688 106.28 245.923 105.928C246.168 105.565 246.504 105.283 246.931 105.08C247.368 104.877 247.886 104.776 248.483 104.776C249.336 104.776 250.03 104.984 250.563 105.4C251.107 105.816 251.422 106.419 251.507 107.208H250.179C250.136 106.803 249.966 106.488 249.667 106.264C249.368 106.029 248.968 105.912 248.467 105.912C247.966 105.912 247.582 106.013 247.315 106.216C247.059 106.419 246.931 106.685 246.931 107.016C246.931 107.229 247 107.416 247.139 107.576C247.288 107.736 247.507 107.875 247.795 107.992C248.083 108.099 248.43 108.195 248.835 108.28C249.358 108.376 249.838 108.504 250.275 108.664C250.712 108.824 251.064 109.059 251.331 109.368C251.608 109.677 251.747 110.12 251.747 110.696C251.758 111.197 251.635 111.635 251.379 112.008C251.134 112.381 250.782 112.675 250.323 112.888C249.864 113.091 249.32 113.192 248.691 113.192ZM257.234 113.192C256.487 113.192 255.821 113.016 255.234 112.664C254.647 112.312 254.183 111.821 253.842 111.192C253.511 110.563 253.346 109.827 253.346 108.984C253.346 108.131 253.511 107.395 253.842 106.776C254.173 106.147 254.631 105.656 255.218 105.304C255.815 104.952 256.498 104.776 257.266 104.776C258.055 104.776 258.727 104.952 259.282 105.304C259.837 105.656 260.258 106.115 260.546 106.68C260.845 107.245 260.994 107.869 260.994 108.552C260.994 108.659 260.994 108.771 260.994 108.888C260.994 109.005 260.989 109.139 260.978 109.288H254.354V108.248H259.666C259.634 107.512 259.389 106.941 258.93 106.536C258.482 106.12 257.917 105.912 257.234 105.912C256.786 105.912 256.365 106.019 255.97 106.232C255.575 106.435 255.255 106.733 255.01 107.128C254.775 107.523 254.658 108.019 254.658 108.616V109.064C254.658 109.725 254.781 110.28 255.026 110.728C255.271 111.165 255.586 111.496 255.97 111.72C256.365 111.944 256.786 112.056 257.234 112.056C257.799 112.056 258.263 111.933 258.626 111.688C258.999 111.432 259.271 111.085 259.442 110.648H260.77C260.631 111.139 260.402 111.576 260.082 111.96C259.762 112.333 259.362 112.632 258.882 112.856C258.413 113.08 257.863 113.192 257.234 113.192ZM270.642 113.192C269.895 113.192 269.223 113.021 268.626 112.68C268.029 112.328 267.554 111.837 267.202 111.208C266.861 110.579 266.69 109.837 266.69 108.984C266.69 108.131 266.866 107.389 267.218 106.76C267.57 106.131 268.045 105.645 268.642 105.304C269.25 104.952 269.927 104.776 270.674 104.776C271.431 104.776 272.109 104.952 272.706 105.304C273.303 105.645 273.773 106.131 274.114 106.76C274.455 107.389 274.626 108.131 274.626 108.984C274.626 109.837 274.45 110.579 274.098 111.208C273.757 111.837 273.282 112.328 272.674 112.68C272.077 113.021 271.399 113.192 270.642 113.192ZM270.642 112.04C271.111 112.04 271.543 111.928 271.938 111.704C272.333 111.469 272.647 111.128 272.882 110.68C273.127 110.221 273.25 109.656 273.25 108.984C273.25 108.301 273.133 107.736 272.898 107.288C272.663 106.84 272.349 106.504 271.954 106.28C271.559 106.045 271.133 105.928 270.674 105.928C270.226 105.928 269.799 106.045 269.394 106.28C268.999 106.504 268.679 106.84 268.434 107.288C268.189 107.736 268.066 108.301 268.066 108.984C268.066 109.656 268.189 110.221 268.434 110.68C268.679 111.128 268.994 111.469 269.378 111.704C269.773 111.928 270.194 112.04 270.642 112.04ZM279.438 113.192C278.82 113.192 278.276 113.069 277.806 112.824C277.348 112.579 276.99 112.2 276.734 111.688C276.489 111.176 276.366 110.531 276.366 109.752V104.968H277.71V109.608C277.71 110.419 277.886 111.027 278.238 111.432C278.59 111.837 279.092 112.04 279.742 112.04C280.19 112.04 280.596 111.933 280.958 111.72C281.321 111.496 281.604 111.176 281.806 110.76C282.02 110.344 282.126 109.837 282.126 109.24V104.968H283.47V113H282.254L282.174 111.592C281.918 112.093 281.55 112.488 281.07 112.776C280.59 113.053 280.046 113.192 279.438 113.192ZM285.682 113V104.968H286.898L287.01 106.504C287.191 106.141 287.421 105.832 287.698 105.576C287.986 105.32 288.327 105.123 288.722 104.984C289.117 104.845 289.565 104.776 290.066 104.776V106.184H289.602C289.261 106.184 288.935 106.232 288.626 106.328C288.317 106.413 288.039 106.557 287.794 106.76C287.559 106.952 287.373 107.224 287.234 107.576C287.095 107.928 287.026 108.36 287.026 108.872V113H285.682ZM41.104 140.52V128.968H42.32L42.448 130.28C42.6187 130.024 42.8373 129.784 43.104 129.56C43.3707 129.325 43.6907 129.139 44.064 129C44.4373 128.851 44.8693 128.776 45.36 128.776C46.1387 128.776 46.816 128.963 47.392 129.336C47.9787 129.699 48.432 130.2 48.752 130.84C49.0827 131.469 49.248 132.189 49.248 133C49.248 133.811 49.0827 134.531 48.752 135.16C48.432 135.789 47.9787 136.285 47.392 136.648C46.8053 137.011 46.1227 137.192 45.344 137.192C44.6933 137.192 44.1173 137.059 43.616 136.792C43.1147 136.525 42.7253 136.152 42.448 135.672V140.52H41.104ZM45.184 136.024C45.7173 136.024 46.1867 135.901 46.592 135.656C46.9973 135.4 47.312 135.043 47.536 134.584C47.7707 134.125 47.888 133.592 47.888 132.984C47.888 132.376 47.7707 131.843 47.536 131.384C47.312 130.925 46.9973 130.573 46.592 130.328C46.1867 130.072 45.7173 129.944 45.184 129.944C44.6507 129.944 44.1813 130.072 43.776 130.328C43.3707 130.573 43.056 130.925 42.832 131.384C42.608 131.843 42.496 132.376 42.496 132.984C42.496 133.592 42.608 134.125 42.832 134.584C43.056 135.043 43.3707 135.4 43.776 135.656C44.1813 135.901 44.6507 136.024 45.184 136.024ZM51.1353 137V125.48H52.4793V137H51.1353ZM57.6258 137.192C57.0071 137.192 56.4631 137.069 55.9938 136.824C55.5351 136.579 55.1778 136.2 54.9218 135.688C54.6764 135.176 54.5538 134.531 54.5538 133.752V128.968H55.8978V133.608C55.8978 134.419 56.0738 135.027 56.4258 135.432C56.7778 135.837 57.2791 136.04 57.9298 136.04C58.3778 136.04 58.7831 135.933 59.1458 135.72C59.5084 135.496 59.7911 135.176 59.9938 134.76C60.2071 134.344 60.3138 133.837 60.3138 133.24V128.968H61.6578V137H60.4418L60.3618 135.592C60.1058 136.093 59.7378 136.488 59.2578 136.776C58.7778 137.053 58.2338 137.192 57.6258 137.192ZM67.0536 140.712C66.3283 140.712 65.6883 140.616 65.1336 140.424C64.579 140.243 64.147 139.96 63.8376 139.576C63.5283 139.192 63.3736 138.717 63.3736 138.152C63.3736 137.907 63.4216 137.645 63.5176 137.368C63.6243 137.101 63.8003 136.835 64.0456 136.568C64.3016 136.301 64.659 136.061 65.1176 135.848L66.0296 136.392C65.475 136.627 65.1123 136.893 64.9416 137.192C64.771 137.491 64.6856 137.768 64.6856 138.024C64.6856 138.376 64.787 138.669 64.9896 138.904C65.1923 139.139 65.4696 139.315 65.8216 139.432C66.1843 139.549 66.595 139.608 67.0536 139.608C67.5123 139.608 67.907 139.539 68.2376 139.4C68.5683 139.272 68.8243 139.091 69.0056 138.856C69.187 138.632 69.2776 138.36 69.2776 138.04C69.2776 137.677 69.139 137.368 68.8616 137.112C68.5843 136.867 68.0616 136.723 67.2936 136.68C66.6536 136.637 66.1203 136.579 65.6936 136.504C65.2776 136.429 64.931 136.344 64.6536 136.248C64.3763 136.141 64.1416 136.024 63.9496 135.896C63.7683 135.768 63.603 135.635 63.4536 135.496V135.128L65.0056 133.576L66.1736 133.992L64.5736 135.448L64.7816 134.888C64.899 134.973 65.011 135.053 65.1176 135.128C65.2243 135.192 65.3683 135.251 65.5496 135.304C65.731 135.357 65.9816 135.411 66.3016 135.464C66.6216 135.507 67.0536 135.549 67.5976 135.592C68.323 135.645 68.9043 135.773 69.3416 135.976C69.7896 136.179 70.1096 136.451 70.3016 136.792C70.5043 137.133 70.6056 137.533 70.6056 137.992C70.6056 138.451 70.4776 138.883 70.2216 139.288C69.9763 139.704 69.5923 140.045 69.0696 140.312C68.547 140.579 67.875 140.712 67.0536 140.712ZM67.0376 134.472C66.3656 134.472 65.795 134.349 65.3256 134.104C64.8563 133.848 64.499 133.507 64.2536 133.08C64.0083 132.643 63.8856 132.157 63.8856 131.624C63.8856 131.091 64.0083 130.611 64.2536 130.184C64.499 129.757 64.8563 129.416 65.3256 129.16C65.795 128.904 66.3656 128.776 67.0376 128.776C67.7203 128.776 68.2963 128.904 68.7656 129.16C69.235 129.416 69.5923 129.757 69.8376 130.184C70.083 130.611 70.2056 131.091 70.2056 131.624C70.2056 132.157 70.083 132.643 69.8376 133.08C69.5923 133.507 69.235 133.848 68.7656 134.104C68.2963 134.349 67.7203 134.472 67.0376 134.472ZM67.0376 133.368C67.6136 133.368 68.067 133.224 68.3976 132.936C68.739 132.637 68.9096 132.2 68.9096 131.624C68.9096 131.069 68.739 130.643 68.3976 130.344C68.067 130.045 67.6136 129.896 67.0376 129.896C66.4723 129.896 66.019 130.045 65.6776 130.344C65.3363 130.643 65.1656 131.069 65.1656 131.624C65.1656 132.2 65.3363 132.637 65.6776 132.936C66.019 133.224 66.4723 133.368 67.0376 133.368ZM68.3496 130.104L67.9496 128.968H71.2456V129.976L68.3496 130.104ZM72.9199 137V128.968H74.2639V137H72.9199ZM73.5919 127.24C73.3252 127.24 73.1012 127.155 72.9199 126.984C72.7492 126.803 72.6639 126.579 72.6639 126.312C72.6639 126.045 72.7492 125.832 72.9199 125.672C73.1012 125.501 73.3252 125.416 73.5919 125.416C73.8479 125.416 74.0665 125.501 74.2479 125.672C74.4292 125.832 74.5199 126.045 74.5199 126.312C74.5199 126.579 74.4292 126.803 74.2479 126.984C74.0665 127.155 73.8479 127.24 73.5919 127.24ZM76.604 137V128.968H77.82L77.9 130.376C78.156 129.875 78.5187 129.485 78.988 129.208C79.468 128.92 80.012 128.776 80.62 128.776C81.2493 128.776 81.7933 128.899 82.252 129.144C82.7107 129.389 83.068 129.768 83.324 130.28C83.58 130.792 83.708 131.437 83.708 132.216V137H82.364V132.36C82.364 131.549 82.188 130.941 81.836 130.536C81.484 130.131 80.9773 129.928 80.316 129.928C79.868 129.928 79.4627 130.04 79.1 130.264C78.748 130.477 78.4653 130.792 78.252 131.208C78.0493 131.624 77.948 132.131 77.948 132.728V137H76.604ZM86.2559 137.08C85.9892 137.08 85.7652 136.995 85.5839 136.824C85.4132 136.643 85.3279 136.424 85.3279 136.168C85.3279 135.912 85.4132 135.699 85.5839 135.528C85.7652 135.347 85.9892 135.256 86.2559 135.256C86.5225 135.256 86.7412 135.347 86.9119 135.528C87.0825 135.699 87.1679 135.912 87.1679 136.168C87.1679 136.424 87.0825 136.643 86.9119 136.824C86.7412 136.995 86.5225 137.08 86.2559 137.08Z" fill="black" fill-opacity="0.96"/>
</g>
<g filter="url(#filter3_dddd_55747_104685)">
<path d="M98 135C98 130.582 101.582 127 106 127H266C270.418 127 274 130.582 274 135V149C274 153.418 270.418 157 266 157H106C101.582 157 98 153.418 98 149V135Z" fill="white"/>
<path d="M110.313 135.039C111.499 135.039 112.477 135.954 112.625 137.138L112.625 137.358H110.45C110.398 137.358 110.347 137.377 110.307 137.411L109.398 138.183C109.33 138.15 109.255 138.132 109.175 138.132C108.885 138.132 108.65 138.374 108.65 138.673C108.65 138.972 108.885 139.214 109.175 139.214C109.465 139.214 109.7 138.972 109.7 138.673C109.7 138.627 109.695 138.583 109.684 138.541L110.531 137.822H112.625V141.765L108.374 141.765C108.29 141.582 108.109 141.456 107.9 141.456C107.61 141.456 107.375 141.698 107.375 141.997C107.375 142.296 107.61 142.538 107.9 142.538C108.109 142.538 108.29 142.412 108.374 142.229L112.625 142.229V146.172H110.531L109.684 145.453C109.695 145.411 109.7 145.367 109.7 145.322C109.7 145.023 109.465 144.78 109.175 144.78C108.885 144.78 108.65 145.023 108.65 145.322C108.65 145.62 108.885 145.863 109.175 145.863C109.255 145.863 109.33 145.844 109.398 145.812L110.307 146.583C110.347 146.617 110.398 146.636 110.45 146.636H112.625L112.625 146.856C112.461 148.043 111.469 148.955 110.275 148.955C109.175 148.955 108.25 148.18 107.984 147.129C107.186 146.77 106.628 145.948 106.628 144.99C106.628 144.765 106.659 144.546 106.717 144.34C106.004 143.957 105.513 143.191 105.5 142.305L105.5 142.229C105.5 141.261 106.076 140.431 106.894 140.084C106.743 139.799 106.651 139.477 106.632 139.134L106.63 139.088C106.627 139.04 106.625 138.992 106.625 138.943C106.625 137.984 107.22 137.167 108.051 136.865C108.303 135.816 109.22 135.039 110.313 135.039Z" fill="url(#paint0_linear_55747_104685)"/>
<path fill-rule="evenodd" clip-rule="evenodd" d="M117.956 136.892C117.712 135.83 116.789 135.039 115.687 135.039C114.501 135.039 113.523 135.954 113.375 137.138V146.856C113.539 148.043 114.531 148.955 115.725 148.955C116.825 148.955 117.75 148.18 118.016 147.129C118.814 146.77 119.372 145.948 119.372 144.99C119.372 144.765 119.341 144.546 119.283 144.34C120.006 143.951 120.5 143.17 120.5 142.269C120.5 141.459 120.1 140.745 119.493 140.327C119.49 140.372 119.475 140.417 119.446 140.455C118.994 141.055 118.484 141.432 117.922 141.587C117.911 141.615 117.901 141.645 117.891 141.678C117.844 141.841 117.819 142.023 117.828 142.219C117.835 142.381 117.867 142.547 117.925 142.713C117.968 142.834 117.908 142.968 117.791 143.012C117.673 143.056 117.544 142.994 117.501 142.873C117.427 142.661 117.387 142.45 117.377 142.241C117.368 142.037 117.387 141.844 117.428 141.665C116.86 141.692 116.247 141.512 115.594 141.127C115.486 141.063 115.448 140.92 115.51 140.809C115.572 140.697 115.71 140.658 115.818 140.722L115.858 140.745C117.175 141.506 118.228 141.256 119.093 140.108C119.271 139.782 119.372 139.405 119.372 139.004C119.372 138.037 118.783 137.212 117.956 136.892ZM114.497 144.75C114.451 144.631 114.507 144.495 114.623 144.447C114.734 144.401 114.86 144.454 114.91 144.565L114.916 144.577L114.925 144.598C114.945 144.639 114.975 144.687 115.014 144.739C115.079 144.823 115.159 144.896 115.254 144.952C115.486 145.09 115.789 145.114 116.188 144.977C116.515 144.758 116.922 144.653 117.405 144.668C117.53 144.671 117.628 144.779 117.624 144.908C117.62 145.036 117.516 145.138 117.392 145.134C116.504 145.107 115.981 145.544 115.768 146.494C115.74 146.62 115.619 146.698 115.498 146.669C115.376 146.64 115.301 146.515 115.329 146.39C115.403 146.057 115.514 145.771 115.66 145.534C115.425 145.528 115.215 145.467 115.03 145.357C114.77 145.204 114.604 144.988 114.51 144.781L114.508 144.776L114.497 144.75ZM115.525 137.216C115.401 137.219 115.302 137.326 115.305 137.454C115.314 137.873 115.402 138.232 115.564 138.529C115.179 138.557 114.804 138.767 114.462 139.188C114.382 139.287 114.394 139.434 114.49 139.517C114.585 139.599 114.728 139.586 114.808 139.488C115.087 139.144 115.364 138.999 115.636 138.992C115.745 138.99 115.85 139.011 115.947 139.048C116.007 139.071 116.056 139.097 116.094 139.121L116.112 139.134L116.124 139.143C116.129 139.146 116.134 139.149 116.139 139.152C116.395 139.322 116.708 139.441 117.077 139.508C117.2 139.53 117.317 139.445 117.338 139.319C117.36 139.192 117.278 139.071 117.155 139.048C116.843 138.991 116.584 138.895 116.379 138.758L116.359 138.743L116.336 138.728C115.958 138.455 115.769 138.031 115.756 137.443C115.753 137.315 115.65 137.213 115.525 137.216Z" fill="url(#paint1_linear_55747_104685)"/>
<path d="M137.401 135.8C137.069 135.8 136.801 136.069 136.801 136.4C136.801 136.731 137.069 137 137.401 137H148.601C148.932 137 149.201 136.731 149.201 136.4C149.201 136.069 148.932 135.8 148.601 135.8H137.401Z" fill="black" fill-opacity="0.96"/>
<path d="M137.401 143.8C137.069 143.8 136.801 144.069 136.801 144.4C136.801 144.731 137.069 145 137.401 145H148.601C148.932 145 149.201 144.731 149.201 144.4C149.201 144.069 148.932 143.8 148.601 143.8H137.401Z" fill="black" fill-opacity="0.96"/>
<path d="M136.801 139.6C136.801 139.269 137.069 139 137.401 139H144.067C144.399 139 144.667 139.269 144.667 139.6C144.667 139.931 144.399 140.2 144.067 140.2H137.401C137.069 140.2 136.801 139.931 136.801 139.6Z" fill="black" fill-opacity="0.96"/>
<path d="M137.401 147C137.069 147 136.801 147.269 136.801 147.6C136.801 147.931 137.069 148.2 137.401 148.2H144.067C144.399 148.2 144.667 147.931 144.667 147.6C144.667 147.269 144.399 147 144.067 147H137.401Z" fill="black" fill-opacity="0.96"/>
<path d="M175.32 135.267H170.682C170.032 135.267 169.507 135.267 169.082 135.301C168.645 135.337 168.261 135.413 167.906 135.594C167.341 135.881 166.882 136.34 166.595 136.905C166.413 137.26 166.338 137.644 166.302 138.082C166.268 138.506 166.268 139.031 166.268 139.681V144.319C166.268 144.969 166.268 145.494 166.302 145.919C166.338 146.356 166.413 146.74 166.595 147.095C166.882 147.66 167.341 148.119 167.906 148.406C168.261 148.587 168.645 148.663 169.082 148.699C169.507 148.733 170.032 148.733 170.682 148.733H173.001C173.332 148.733 173.601 148.465 173.601 148.133C173.601 147.802 173.332 147.533 173.001 147.533H170.708C170.026 147.533 169.55 147.533 169.18 147.503C168.817 147.473 168.608 147.418 168.45 147.337C168.112 147.165 167.836 146.889 167.664 146.551C167.583 146.393 167.528 146.184 167.498 145.821C167.468 145.451 167.468 144.975 167.468 144.293V139.707C167.468 139.025 167.468 138.549 167.498 138.179C167.528 137.816 167.583 137.608 167.664 137.45C167.836 137.111 168.112 136.835 168.45 136.663C168.608 136.582 168.817 136.527 169.18 136.497C169.55 136.467 170.026 136.467 170.708 136.467H175.294C175.976 136.467 176.452 136.467 176.822 136.497C177.185 136.527 177.393 136.582 177.551 136.663C177.89 136.835 178.165 137.111 178.338 137.45C178.419 137.608 178.474 137.816 178.504 138.179C178.534 138.549 178.534 139.025 178.534 139.707V142C178.534 142.331 178.803 142.6 179.134 142.6C179.466 142.6 179.734 142.331 179.734 142V139.681C179.734 139.031 179.734 138.506 179.7 138.082C179.664 137.644 179.588 137.26 179.407 136.905C179.12 136.34 178.661 135.881 178.096 135.594C177.741 135.413 177.357 135.337 176.919 135.301C176.495 135.267 175.97 135.267 175.32 135.267Z" fill="black" fill-opacity="0.96"/>
<path d="M177.672 143.897C177.753 143.857 177.848 143.857 177.929 143.897C178.001 143.932 178.039 143.994 178.056 144.024C178.075 144.057 178.093 144.098 178.111 144.138L178.656 145.336C178.667 145.36 178.672 145.372 178.677 145.381L178.679 145.384L178.68 145.386L178.681 145.387L178.682 145.388C178.683 145.389 178.684 145.389 178.687 145.391C178.696 145.395 178.708 145.401 178.732 145.412L179.929 145.956C179.969 145.974 180.011 145.993 180.043 146.012C180.074 146.029 180.135 146.066 180.171 146.138C180.211 146.219 180.211 146.314 180.171 146.395C180.135 146.467 180.074 146.505 180.043 146.522C180.011 146.54 179.969 146.559 179.929 146.577L178.732 147.122C178.708 147.133 178.696 147.138 178.687 147.143L178.685 147.144L178.682 147.145L178.681 147.146L178.68 147.147L178.68 147.148L178.679 147.149L178.677 147.153C178.672 147.162 178.667 147.174 178.656 147.198L178.112 148.395C178.093 148.435 178.075 148.477 178.056 148.509C178.039 148.539 178.001 148.601 177.929 148.637C177.848 148.677 177.753 148.677 177.672 148.637C177.6 148.601 177.563 148.539 177.546 148.509C177.527 148.477 177.508 148.435 177.49 148.395L176.946 147.198C176.935 147.174 176.929 147.162 176.925 147.153C176.924 147.15 176.923 147.149 176.922 147.148C176.922 147.147 176.921 147.146 176.92 147.145C176.919 147.145 176.918 147.144 176.915 147.143C176.906 147.138 176.894 147.133 176.87 147.122L175.672 146.577C175.633 146.559 175.591 146.54 175.558 146.522C175.528 146.505 175.466 146.467 175.431 146.395C175.391 146.314 175.391 146.219 175.431 146.138C175.466 146.066 175.528 146.029 175.558 146.012C175.591 145.993 175.632 145.974 175.672 145.956L176.87 145.412C176.894 145.401 176.906 145.395 176.915 145.391C176.918 145.389 176.919 145.389 176.92 145.388L176.921 145.387C176.921 145.387 176.922 145.386 176.922 145.386L176.924 145.384L176.925 145.381C176.929 145.372 176.935 145.36 176.946 145.336L177.49 144.138C177.508 144.098 177.527 144.057 177.546 144.024C177.563 143.994 177.6 143.932 177.672 143.897Z" fill="black" fill-opacity="0.96"/>
<path d="M169.201 140.133C169.201 139.802 169.47 139.533 169.801 139.533H176.201C176.532 139.533 176.801 139.802 176.801 140.133C176.801 140.465 176.532 140.733 176.201 140.733H169.801C169.47 140.733 169.201 140.465 169.201 140.133Z" fill="black" fill-opacity="0.96"/>
<path d="M169.801 143.267C169.47 143.267 169.201 143.535 169.201 143.867C169.201 144.198 169.47 144.467 169.801 144.467H174.601C174.932 144.467 175.201 144.198 175.201 143.867C175.201 143.535 174.932 143.267 174.601 143.267H169.801Z" fill="black" fill-opacity="0.96"/>
<path fill-rule="evenodd" clip-rule="evenodd" d="M209.031 135.969C208.067 135.006 206.505 135.006 205.542 135.969L196.969 144.543C196.005 145.506 196.005 147.068 196.969 148.031C197.932 148.994 199.494 148.994 200.457 148.031L209.031 139.457C209.994 138.494 209.994 136.932 209.031 135.969ZM206.391 136.818C206.885 136.323 207.687 136.323 208.182 136.818C208.677 137.312 208.677 138.114 208.182 138.609L207.253 139.538L205.461 137.747L206.391 136.818ZM204.613 138.595L197.817 145.391C197.322 145.886 197.322 146.688 197.817 147.182C198.312 147.677 199.114 147.677 199.608 147.182L206.404 140.387L204.613 138.595Z" fill="black" fill-opacity="0.96"/>
<path d="M233.001 138.5C232.356 138.5 231.834 137.978 231.834 137.333C231.834 136.689 232.356 136.167 233.001 136.167C233.645 136.167 234.167 136.689 234.167 137.333C234.167 137.978 233.645 138.5 233.001 138.5Z" fill="black" fill-opacity="0.96"/>
<path d="M233.001 143.167C232.356 143.167 231.834 142.644 231.834 142C231.834 141.356 232.356 140.833 233.001 140.833C233.645 140.833 234.167 141.356 234.167 142C234.167 142.644 233.645 143.167 233.001 143.167Z" fill="black" fill-opacity="0.96"/>
<path d="M231.834 146.667C231.834 147.311 232.356 147.833 233.001 147.833C233.645 147.833 234.167 147.311 234.167 146.667C234.167 146.022 233.645 145.5 233.001 145.5C232.356 145.5 231.834 146.022 231.834 146.667Z" fill="black" fill-opacity="0.96"/>
<path d="M255.172 137.429C254.967 137.224 254.634 137.224 254.429 137.429C254.224 137.634 254.224 137.966 254.429 138.171L258.258 142L254.429 145.829C254.224 146.034 254.224 146.366 254.429 146.571C254.634 146.776 254.967 146.776 255.172 146.571L259 142.742L262.829 146.571C263.034 146.776 263.367 146.776 263.572 146.571C263.777 146.366 263.777 146.034 263.572 145.829L259.743 142L263.572 138.171C263.777 137.966 263.777 137.634 263.572 137.429C263.367 137.224 263.034 137.224 262.829 137.429L259 141.258L255.172 137.429Z" fill="#0A0D33" fill-opacity="0.45"/>
<path d="M246.5 134.5L246.5 149.5" stroke="#72768B" stroke-opacity="0.08" stroke-linecap="square"/>
</g>
</g>
<defs>
<filter id="filter0_f_55747_104685" x="-288" y="-460" width="1100" height="1100" filterUnits="userSpaceOnUse" color-interpolation-filters="sRGB">
<feFlood flood-opacity="0" result="BackgroundImageFix"/>
<feBlend mode="normal" in="SourceGraphic" in2="BackgroundImageFix" result="shape"/>
<feGaussianBlur stdDeviation="200" result="effect1_foregroundBlur_55747_104685"/>
</filter>
<filter id="filter1_f_55747_104685" x="-528" y="-380" width="1200" height="1200" filterUnits="userSpaceOnUse" color-interpolation-filters="sRGB">
<feFlood flood-opacity="0" result="BackgroundImageFix"/>
<feBlend mode="normal" in="SourceGraphic" in2="BackgroundImageFix" result="shape"/>
<feGaussianBlur stdDeviation="200" result="effect1_foregroundBlur_55747_104685"/>
</filter>
<filter id="filter2_d_55747_104685" x="21" y="57" width="310" height="126" filterUnits="userSpaceOnUse" color-interpolation-filters="sRGB">
<feFlood flood-opacity="0" result="BackgroundImageFix"/>
<feColorMatrix in="SourceAlpha" type="matrix" values="0 0 0 0 0 0 0 0 0 0 0 0 0 0 0 0 0 0 127 0" result="hardAlpha"/>
<feMorphology radius="3" operator="dilate" in="SourceAlpha" result="effect1_dropShadow_55747_104685"/>
<feOffset/>
<feColorMatrix type="matrix" values="0 0 0 0 0.478431 0 0 0 0 0.34902 0 0 0 0 1 0 0 0 0.12 0"/>
<feBlend mode="normal" in2="BackgroundImageFix" result="effect1_dropShadow_55747_104685"/>
<feBlend mode="normal" in="SourceGraphic" in2="effect1_dropShadow_55747_104685" result="shape"/>
</filter>
<filter id="filter3_dddd_55747_104685" x="2" y="55" width="368" height="222" filterUnits="userSpaceOnUse" color-interpolation-filters="sRGB">
<feFlood flood-opacity="0" result="BackgroundImageFix"/>
<feColorMatrix in="SourceAlpha" type="matrix" values="0 0 0 0 0 0 0 0 0 0 0 0 0 0 0 0 0 0 127 0" result="hardAlpha"/>
<feOffset dy="24"/>
<feGaussianBlur stdDeviation="48"/>
<feColorMatrix type="matrix" values="0 0 0 0 0.447059 0 0 0 0 0.462745 0 0 0 0 0.545098 0 0 0 0.08 0"/>
<feBlend mode="normal" in2="BackgroundImageFix" result="effect1_dropShadow_55747_104685"/>
<feColorMatrix in="SourceAlpha" type="matrix" values="0 0 0 0 0 0 0 0 0 0 0 0 0 0 0 0 0 0 127 0" result="hardAlpha"/>
<feOffset dy="12"/>
<feGaussianBlur stdDeviation="24"/>
<feColorMatrix type="matrix" values="0 0 0 0 0.447059 0 0 0 0 0.462745 0 0 0 0 0.545098 0 0 0 0.08 0"/>
<feBlend mode="normal" in2="effect1_dropShadow_55747_104685" result="effect2_dropShadow_55747_104685"/>
<feColorMatrix in="SourceAlpha" type="matrix" values="0 0 0 0 0 0 0 0 0 0 0 0 0 0 0 0 0 0 127 0" result="hardAlpha"/>
<feOffset dy="6"/>
<feGaussianBlur stdDeviation="12"/>
<feColorMatrix type="matrix" values="0 0 0 0 0.447059 0 0 0 0 0.462745 0 0 0 0 0.545098 0 0 0 0.08 0"/>
<feBlend mode="normal" in2="effect2_dropShadow_55747_104685" result="effect3_dropShadow_55747_104685"/>
<feColorMatrix in="SourceAlpha" type="matrix" values="0 0 0 0 0 0 0 0 0 0 0 0 0 0 0 0 0 0 127 0" result="hardAlpha"/>
<feMorphology radius="1" operator="dilate" in="SourceAlpha" result="effect4_dropShadow_55747_104685"/>
<feOffset/>
<feColorMatrix type="matrix" values="0 0 0 0 0.447059 0 0 0 0 0.462745 0 0 0 0 0.545098 0 0 0 0.08 0"/>
<feBlend mode="normal" in2="effect3_dropShadow_55747_104685" result="effect4_dropShadow_55747_104685"/>
<feBlend mode="normal" in="SourceGraphic" in2="effect4_dropShadow_55747_104685" result="shape"/>
</filter>
<linearGradient id="paint0_linear_55747_104685" x1="118.264" y1="148.581" x2="106.632" y2="137.59" gradientUnits="userSpaceOnUse">
<stop stop-color="#32C5FF"/>
<stop offset="0.25" stop-color="#5666F5"/>
<stop offset="0.523727" stop-color="#8A57EA"/>
<stop offset="0.820607" stop-color="#EB35CE"/>
<stop offset="1" stop-color="#F7B500"/>
</linearGradient>
<linearGradient id="paint1_linear_55747_104685" x1="118.264" y1="148.581" x2="106.632" y2="137.59" gradientUnits="userSpaceOnUse">
<stop stop-color="#32C5FF"/>
<stop offset="0.25" stop-color="#5666F5"/>
<stop offset="0.523727" stop-color="#8A57EA"/>
<stop offset="0.820607" stop-color="#EB35CE"/>
<stop offset="1" stop-color="#F7B500"/>
</linearGradient>
<clipPath id="clip0_55747_104685">
<rect width="352" height="240" fill="white"/>
</clipPath>
</defs>
</svg>
