<svg width="171" height="171" viewBox="0 0 171 171" fill="none" xmlns="http://www.w3.org/2000/svg">
<mask id="mask0_45287_6108" style="mask-type:alpha" maskUnits="userSpaceOnUse" x="11" y="1" width="149" height="169">
<path d="M79.5 3.46414C83.2128 1.32055 87.7872 1.32055 91.5 3.46414L153.545 39.2859C157.258 41.4295 159.545 45.3911 159.545 49.6782V121.322C159.545 125.609 157.258 129.571 153.545 131.714L91.5 167.536C87.7872 169.68 83.2128 169.68 79.5 167.536L17.4548 131.714C13.742 129.571 11.4548 125.609 11.4548 121.322V49.6782C11.4548 45.3911 13.742 41.4295 17.4548 39.2859L79.5 3.46414Z" fill="url(#paint0_radial_45287_6108)"/>
</mask>
<g mask="url(#mask0_45287_6108)">
<path d="M79.5 3.46414C83.2128 1.32055 87.7872 1.32055 91.5 3.46414L153.545 39.2859C157.258 41.4295 159.545 45.3911 159.545 49.6782V121.322C159.545 125.609 157.258 129.571 153.545 131.714L91.5 167.536C87.7872 169.68 83.2128 169.68 79.5 167.536L17.4548 131.714C13.742 129.571 11.4548 125.609 11.4548 121.322V49.6782C11.4548 45.391 13.742 41.4295 17.4548 39.2859L79.5 3.46414Z" fill="url(#paint1_radial_45287_6108)"/>
<path d="M19.188 -73.375C50.94 -91.707 90.06 -91.707 121.812 -73.375C153.564 -55.043 173.124 -21.164 173.124 15.5C173.124 52.164 153.564 86.043 121.812 104.375C90.06 122.707 50.94 122.707 19.188 104.375C-12.564 86.043 -32.124 52.164 -32.124 15.5C-32.124 -21.164 -12.564 -55.043 19.188 -73.375Z" fill="url(#paint2_radial_45287_6108)"/>
</g>
<path d="M103 88.5L93.5 89C95.5 50 132.5 35.9998 132.5 36.9998C113.5 50.5 104 77 103 88.5Z" fill="#00996F"/>
<path d="M68 102.5C68 102.5 75.3494 101.911 77.5002 100C66.3809 62.5652 26.7769 58.2519 27.0121 59.2238C46.5002 69.5 64.3225 91.5581 68 102.5Z" fill="#00996F"/>
<path d="M110.914 22.805C86.6726 37.9515 82.4431 66.1255 82.4429 79.3194C82.4429 79.859 82.4472 80.3634 82.4556 80.8361C82.3067 80.3738 82.1401 79.9217 81.9544 79.4823C66.9865 46.6485 24.4148 48.3748 5 53.4237C6.90964 58.0736 8.44271 62.15 9.80696 65.7774C12.7432 73.5846 14.8974 79.3126 18.3409 84.2053C30.6496 101.694 52.117 104.244 68.2246 102.682C63.0854 86.335 51.8368 72.7605 37.218 64.5624C58.8368 68.2567 75.7169 85.859 78.3444 107.845C79.7208 117.281 79.9314 129.998 76.9108 143H96.5968C94.1843 134.881 90.4793 113.358 93.8426 89.4234C95.852 65.7325 111.365 45.7655 132.316 36.8802C115.82 48.756 104.702 67.2511 102.454 88.547C102.863 88.4879 103.028 88.5058 103.43 88.4399C134.837 85.4076 146.716 65.485 149.477 60.8549L149.545 60.7409C149.576 60.6883 149.606 60.6379 149.635 60.5899C152.076 56.5182 160.373 29.3196 162 12.0558C137.01 11.2741 117.531 18.8962 110.914 22.805Z" fill="#56C498"/>
<path d="M144.234 165.946C144.331 169.55 139.917 171.412 137.353 168.848L104.166 135.661L111.284 116.732L139.395 119.212C143.197 119.548 146.755 121.209 149.432 123.899L166.172 140.714C168.727 143.28 166.793 147.615 163.154 147.479L152.29 147.071C147.646 146.897 143.82 150.639 143.944 155.232L144.234 165.946Z" fill="#00996F"/>
<path d="M26.3896 165.945C26.2923 169.55 30.7063 171.412 33.2704 168.848L66.4576 135.66L55.2844 117.408L32.6144 118.185C28.4472 118.328 24.4986 120.065 21.6009 123.031L4.29012 140.745C1.77175 143.322 3.71301 147.619 7.33424 147.483L18.3334 147.071C22.9768 146.897 26.8028 150.638 26.6788 155.232L26.3896 165.945Z" fill="#00996F"/>
<path fill-rule="evenodd" clip-rule="evenodd" d="M19.878 117.913C16.6448 118.689 14.5805 121.896 15.2949 125.143C16.2724 129.586 17.5929 135.587 18.483 139.628C19.3775 143.689 20.707 149.73 21.6861 154.179C22.3952 157.401 25.5737 159.445 28.7762 158.652C33.0194 157.601 36.339 156.692 41.9081 155.849C55.976 153.721 69.1902 151.699 85 151.699C100.81 151.699 114.024 153.721 128.092 155.849C132.162 156.465 137.127 157.564 140.952 158.477C144.277 159.27 147.646 157.215 148.38 153.877C149.259 149.882 150.44 144.519 151.517 139.628C152.912 133.294 154.002 128.341 154.758 124.904C155.452 121.75 153.526 118.622 150.383 117.879C145.866 116.81 139.469 115.387 134.456 114.629C119.508 112.367 103.898 110 85 110C66.1015 110 50.4917 112.367 35.5437 114.629C29.0696 115.608 25.0564 116.671 19.878 117.913Z" fill="#56C498"/>
<path fill-rule="evenodd" clip-rule="evenodd" d="M35.768 115.606L35.6933 115.617C30.1195 116.461 26.3949 117.364 22.1144 118.402C21.4625 118.56 20.7976 118.721 20.1113 118.885C17.3939 119.537 15.6773 122.227 16.2716 124.928C17.2491 129.371 18.5696 135.372 19.4597 139.413C20.3542 143.474 21.6836 149.515 22.6628 153.964C23.255 156.655 25.8974 158.335 28.5359 157.681C29.066 157.55 29.5825 157.421 30.0917 157.293C33.6462 156.404 36.8392 155.605 41.7586 154.86L42.1799 154.797C56.0865 152.693 69.2638 150.699 85 150.699C100.736 150.699 113.914 152.693 127.82 154.797L128.241 154.86C132.355 155.483 137.353 156.59 141.184 157.504C143.979 158.171 146.792 156.44 147.403 153.662C148.283 149.667 149.463 144.304 150.54 139.413C151.936 133.079 153.026 128.126 153.782 124.69C154.36 122.059 152.754 119.467 150.153 118.852C145.64 117.784 139.276 116.369 134.307 115.617L134.232 115.606C119.305 113.348 103.783 111 85 111C66.2167 111 50.6949 113.348 35.768 115.606ZM35.5083 113.623C50.4201 111.367 66.0661 109 85 109C103.934 109 119.58 111.367 134.492 113.623L134.606 113.64C139.662 114.405 146.093 115.836 150.613 116.906C154.298 117.777 156.544 121.442 155.735 125.119C154.979 128.555 153.889 133.509 152.494 139.843C151.416 144.734 150.236 150.097 149.357 154.092C148.499 157.991 144.574 160.369 140.72 159.45C136.901 158.538 131.97 157.447 127.942 156.838L127.568 156.781C113.635 154.674 100.585 152.699 85 152.699C69.4149 152.699 56.3646 154.673 42.4316 156.781L42.0577 156.838C37.2364 157.567 34.1297 158.345 30.5806 159.233C30.0705 159.36 29.5513 159.49 29.0165 159.623C25.25 160.555 21.5355 158.147 20.7095 154.394C19.7304 149.944 18.401 143.904 17.5065 139.843C16.6163 135.802 15.2958 129.801 14.3183 125.358C13.4837 121.564 15.8957 117.84 19.6448 116.941C20.3258 116.777 20.9875 116.617 21.6382 116.459C25.9228 115.42 29.7292 114.497 35.3942 113.64L35.5083 113.623Z" fill="#BEE7D1"/>
<path d="M86.0876 116.7C85.8937 116.274 85.4685 116 85 116C84.5315 116 84.1063 116.274 83.9124 116.7L83.5524 117.492C82.0677 120.758 81.3927 122.227 80.4576 123.478C79.6123 124.609 78.6089 125.612 77.4781 126.458C76.2271 127.393 74.7578 128.068 71.4922 129.552L70.7002 129.912C70.2738 130.106 70 130.532 70 131C70 131.468 70.2738 131.894 70.7002 132.088L71.4922 132.448C74.7578 133.932 76.2271 134.607 77.4781 135.542C78.6089 136.388 79.6123 137.391 80.4576 138.522C81.3927 139.773 82.0677 141.242 83.5524 144.508L83.9124 145.3C84.1063 145.726 84.5315 146 85 146C85.4685 146 85.8937 145.726 86.0876 145.3L86.4476 144.508C87.9323 141.242 88.6073 139.773 89.5424 138.522C90.3877 137.391 91.3911 136.388 92.5219 135.542C93.7729 134.607 95.2422 133.932 98.5078 132.448L99.2998 132.088C99.7262 131.894 100 131.468 100 131C100 130.532 99.7262 130.106 99.2998 129.912L98.5078 129.552C95.2422 128.068 93.7729 127.393 92.5219 126.458C91.3911 125.612 90.3877 124.609 89.5424 123.478C88.6073 122.227 87.9323 120.758 86.4476 117.492L86.0876 116.7Z" fill="#F0F9F1"/>
<defs>
<radialGradient id="paint0_radial_45287_6108" cx="0" cy="0" r="1" gradientUnits="userSpaceOnUse" gradientTransform="translate(84.8268 120.5) rotate(-90) scale(156.5 156.5)">
<stop stop-color="#A997FF"/>
<stop offset="1" stop-color="#3A00B3"/>
</radialGradient>
<radialGradient id="paint1_radial_45287_6108" cx="0" cy="0" r="1" gradientUnits="userSpaceOnUse" gradientTransform="translate(84.8268 120.5) rotate(-90) scale(156.5 156.5)">
<stop stop-color="#A997FF"/>
<stop offset="1" stop-color="#3A00B3"/>
</radialGradient>
<radialGradient id="paint2_radial_45287_6108" cx="0" cy="0" r="1" gradientUnits="userSpaceOnUse" gradientTransform="translate(69.807 -34.3947) rotate(91.5009) scale(158.747)">
<stop stop-color="#A997FF"/>
<stop offset="1" stop-color="#3A00B3"/>
</radialGradient>
</defs>
</svg>
