<svg width="360" height="290" viewBox="0 0 360 290" fill="none" xmlns="http://www.w3.org/2000/svg">
<g clip-path="url(#clip0_53448_25452)">
<rect width="360" height="290" fill="url(#paint0_linear_53448_25452)"/>
<rect width="360" height="290" fill="url(#paint1_linear_53448_25452)"/>
<g opacity="0.5" filter="url(#filter0_f_53448_25452)">
<path d="M359.723 -40.104C371.114 -8.73551 369.329 26.5135 354.759 57.8887C340.189 89.2639 314.029 114.195 282.032 127.198C250.036 140.201 214.825 140.21 184.145 127.224C153.465 114.237 129.83 89.3188 118.438 57.9504L239.081 8.92322L359.723 -40.104Z" fill="url(#paint2_linear_53448_25452)"/>
</g>
<g opacity="0.5" filter="url(#filter1_f_53448_25452)">
<path d="M15.7228 35.8963C27.1144 67.2647 25.3289 102.514 10.7591 133.889C-3.8107 165.264 -29.9713 190.195 -61.9676 203.198C-93.9639 216.201 -129.175 216.21 -159.855 203.224C-190.535 190.237 -214.17 165.319 -225.562 133.951L-104.919 84.9235L15.7228 35.8963Z" fill="url(#paint3_linear_53448_25452)"/>
</g>
</g>
<defs>
<filter id="filter0_f_53448_25452" x="89.6381" y="-68.904" width="306.303" height="234.661" filterUnits="userSpaceOnUse" color-interpolation-filters="sRGB">
<feFlood flood-opacity="0" result="BackgroundImageFix"/>
<feBlend mode="normal" in="SourceGraphic" in2="BackgroundImageFix" result="shape"/>
<feGaussianBlur stdDeviation="14.4" result="effect1_foregroundBlur_53448_25452"/>
</filter>
<filter id="filter1_f_53448_25452" x="-254.362" y="7.09624" width="306.303" height="234.661" filterUnits="userSpaceOnUse" color-interpolation-filters="sRGB">
<feFlood flood-opacity="0" result="BackgroundImageFix"/>
<feBlend mode="normal" in="SourceGraphic" in2="BackgroundImageFix" result="shape"/>
<feGaussianBlur stdDeviation="14.4" result="effect1_foregroundBlur_53448_25452"/>
</filter>
<linearGradient id="paint0_linear_53448_25452" x1="180" y1="93.5" x2="180" y2="323.5" gradientUnits="userSpaceOnUse">
<stop/>
<stop offset="1" stop-opacity="0"/>
</linearGradient>
<linearGradient id="paint1_linear_53448_25452" x1="346.875" y1="1.92787e-05" x2="312.89" y2="118.587" gradientUnits="userSpaceOnUse">
<stop stop-color="#7A59FF" stop-opacity="0.48"/>
<stop offset="1" stop-opacity="0"/>
</linearGradient>
<linearGradient id="paint2_linear_53448_25452" x1="187.627" y1="108.013" x2="312.01" y2="-2.19634" gradientUnits="userSpaceOnUse">
<stop offset="0.00889242" stop-color="#006C4D"/>
<stop offset="0.491044" stop-color="#530036"/>
<stop offset="1" stop-color="#31009B"/>
</linearGradient>
<linearGradient id="paint3_linear_53448_25452" x1="-156.373" y1="184.013" x2="-31.99" y2="73.8039" gradientUnits="userSpaceOnUse">
<stop stop-color="#F3F0FF"/>
<stop offset="0.423103" stop-color="#F0E9FF"/>
<stop offset="0.635565" stop-color="#FFF5F0"/>
<stop offset="0.991108" stop-color="#006C4D"/>
</linearGradient>
<clipPath id="clip0_53448_25452">
<rect width="360" height="290" fill="white"/>
</clipPath>
</defs>
</svg>
