<svg width="165" height="100" viewBox="0 0 165 100" fill="none" xmlns="http://www.w3.org/2000/svg">
<path d="M23.406 45.0426C23.406 45.0426 20.4661 41.5248 17.1079 43.3724" stroke="url(#paint0_linear_45287_5964)" stroke-width="2.3009" stroke-linecap="round"/>
<path d="M118.405 15.9718C116.299 16.5294 115.154 17.6022 114.639 18.5631" stroke="url(#paint1_linear_45287_5964)" stroke-width="2.3009" stroke-linecap="round"/>
<path d="M140.453 50.2899C140.453 50.2899 136.136 50.6737 134.393 53.1321" stroke="url(#paint2_linear_45287_5964)" stroke-width="2.3009" stroke-linecap="round"/>
<path d="M46.285 19.3656C46.285 19.3656 44.0404 18.3386 43.3382 16.6101" stroke="url(#paint3_linear_45287_5964)" stroke-width="2.3009" stroke-linecap="round"/>
<path d="M80.6968 74.9202L69.457 78.6781C68.115 79.8672 65.4108 88.6592 76.0817 90.6537C88.8818 93.0462 88.1635 90.0535 90.1986 87.3002C90.8223 86.4564 91.6022 79.4043 92.9781 79.1495C96.1564 78.5609 102.471 77.226 103.374 74.1045C104.597 69.8748 95.4863 71.6583 92.2646 71.6583C86.1495 70.2313 81.8688 72.6267 80.6968 74.9202Z" fill="url(#paint4_linear_45287_5964)"/>
<path d="M92.4188 79.0304C90.9555 78.928 88.4214 77.249 88.14 75.9832" stroke="black" stroke-width="0.610786" stroke-linecap="round"/>
<mask id="mask0_45287_5964" style="mask-type:alpha" maskUnits="userSpaceOnUse" x="121" y="12" width="27" height="27">
<path d="M137.735 12.9592C137.923 12.6937 138.34 12.8123 138.36 13.1369L138.954 22.8214C138.96 22.9256 139.014 23.0213 139.099 23.0815L147.023 28.6813C147.288 28.869 147.17 29.2863 146.845 29.3062L137.16 29.9C137.056 29.9064 136.961 29.9597 136.9 30.045L131.301 37.9687C131.113 38.2342 130.696 38.1156 130.676 37.791L130.082 28.1065C130.076 28.0023 130.022 27.9066 129.937 27.8464L122.013 22.2466C121.748 22.059 121.866 21.6417 122.191 21.6218L131.875 21.0279C131.98 21.0215 132.075 20.9682 132.136 20.883L137.735 12.9592Z" fill="white"/>
</mask>
<g mask="url(#mask0_45287_5964)">
<path d="M138.167 12.349C138.211 12.2862 138.31 12.3142 138.314 12.3911L138.962 22.9472C138.963 22.9719 138.976 22.9945 138.996 23.0088L147.633 29.1126C147.696 29.157 147.668 29.2557 147.591 29.2604L137.035 29.9077C137.01 29.9092 136.987 29.9218 136.973 29.942L130.869 38.5789C130.825 38.6417 130.726 38.6137 130.721 38.5369L130.074 27.9807C130.073 27.956 130.06 27.9334 130.04 27.9191L121.403 21.8154C121.34 21.771 121.368 21.6722 121.445 21.6675L132.001 21.0202C132.026 21.0187 132.049 21.0061 132.063 20.9859L138.167 12.349Z" fill="#FFFBFA"/>
<g filter="url(#filter0_f_45287_5964)">
<ellipse cx="127.883" cy="28.2837" rx="3.88247" ry="10.2021" transform="rotate(128.663 127.883 28.2837)" fill="#6F3CFF"/>
</g>
<g filter="url(#filter1_f_45287_5964)">
<ellipse cx="140.694" cy="17.4593" rx="5.81" ry="7.75757" transform="rotate(24.3361 140.694 17.4593)" fill="#CB44FA"/>
</g>
</g>
<path d="M35.7793 76.8368C36.105 77.085 36.1437 77.5608 35.8623 77.8583L32.552 81.3572C32.3101 81.6129 31.9142 81.6451 31.6342 81.4318L24.3264 75.8653C24.0006 75.6171 23.962 75.1413 24.2434 74.8438L27.5537 71.3449C27.7956 71.0892 28.1915 71.057 28.4715 71.2704L35.7793 76.8368Z" fill="url(#paint5_linear_45287_5964)"/>
<mask id="mask1_45287_5964" style="mask-type:alpha" maskUnits="userSpaceOnUse" x="33" y="25" width="96" height="48">
<path fill-rule="evenodd" clip-rule="evenodd" d="M33.1774 27.5629C33.1774 26.2217 34.2646 25.1345 35.6057 25.1345H126.305C127.646 25.1345 128.733 26.2217 128.733 27.5629V43.9462C126.366 44.4171 124.583 46.4999 124.583 48.998C124.583 51.4961 126.366 53.5789 128.733 54.0498V70.2414C128.733 71.5826 127.646 72.6698 126.305 72.6698H35.6057C34.2646 72.6698 33.1774 71.5826 33.1774 70.2414V54.1468C35.9527 54.058 38.1752 51.7868 38.1752 48.998C38.1752 46.2092 35.9527 43.938 33.1774 43.8491V27.5629Z" fill="url(#paint6_linear_45287_5964)"/>
<path fill-rule="evenodd" clip-rule="evenodd" d="M33.1774 27.5629C33.1774 26.2217 34.2646 25.1345 35.6057 25.1345H126.305C127.646 25.1345 128.733 26.2217 128.733 27.5629V43.9462C126.366 44.4171 124.583 46.4999 124.583 48.998C124.583 51.4961 126.366 53.5789 128.733 54.0498V70.2414C128.733 71.5826 127.646 72.6698 126.305 72.6698H35.6057C34.2646 72.6698 33.1774 71.5826 33.1774 70.2414V54.1468C35.9527 54.058 38.1752 51.7868 38.1752 48.998C38.1752 46.2092 35.9527 43.938 33.1774 43.8491V27.5629Z" fill="url(#paint7_linear_45287_5964)" fill-opacity="0.2"/>
</mask>
<g mask="url(#mask1_45287_5964)">
<path fill-rule="evenodd" clip-rule="evenodd" d="M33.1774 27.5629C33.1774 26.2217 34.2646 25.1345 35.6057 25.1345H126.305C127.646 25.1345 128.733 26.2217 128.733 27.5629V43.9465C126.366 44.4188 124.583 46.5077 124.583 49.0131C124.583 51.5186 126.366 53.6075 128.733 54.0798V70.2414C128.733 71.5826 127.646 72.6698 126.305 72.6698H35.6057C34.2646 72.6698 33.1774 71.5826 33.1774 70.2414V54.1771C35.9527 54.088 38.1752 51.8101 38.1752 49.0131C38.1752 46.2162 35.9527 43.9383 33.1774 43.8492V27.5629Z" fill="url(#paint8_linear_45287_5964)"/>
<path fill-rule="evenodd" clip-rule="evenodd" d="M33.1774 27.5629C33.1774 26.2217 34.2646 25.1345 35.6057 25.1345H126.305C127.646 25.1345 128.733 26.2217 128.733 27.5629V43.9465C126.366 44.4188 124.583 46.5077 124.583 49.0131C124.583 51.5186 126.366 53.6075 128.733 54.0798V70.2414C128.733 71.5826 127.646 72.6698 126.305 72.6698H35.6057C34.2646 72.6698 33.1774 71.5826 33.1774 70.2414V54.1771C35.9527 54.088 38.1752 51.8101 38.1752 49.0131C38.1752 46.2162 35.9527 43.9383 33.1774 43.8492V27.5629Z" fill="url(#paint9_linear_45287_5964)" fill-opacity="0.2"/>
<path d="M123.882 42.7096L124.117 42.9616L124.227 42.7096H123.882ZM123.882 55.3158H124.227L124.117 55.0638L123.882 55.3158ZM37.5429 56.4583L37.3695 56.1607L37.1985 56.4583H37.5429ZM37.5429 41.5671H37.1985L37.3695 41.8647L37.5429 41.5671ZM39.2651 29.1553C38.1237 29.1553 37.1985 30.0806 37.1985 31.222H37.8874C37.8874 30.4611 38.5042 29.8442 39.2651 29.8442V29.1553ZM122.16 29.1553H39.2651V29.8442H122.16V29.1553ZM124.227 31.222C124.227 30.0806 123.302 29.1553 122.16 29.1553V29.8442C122.921 29.8442 123.538 30.4611 123.538 31.222H124.227ZM124.227 42.7096V31.222H123.538V42.7096H124.227ZM121.483 49.0127C121.483 46.6234 122.496 44.4713 124.117 42.9616L123.648 42.4575C121.892 44.092 120.794 46.4243 120.794 49.0127H121.483ZM124.117 55.0638C122.496 53.5541 121.483 51.402 121.483 49.0127H120.794C120.794 51.6011 121.892 53.9334 123.648 55.5679L124.117 55.0638ZM124.227 66.5818V55.3158H123.538V66.5818H124.227ZM122.16 68.6485C123.302 68.6485 124.227 67.7232 124.227 66.5818H123.538C123.538 67.3427 122.921 67.9596 122.16 67.9596V68.6485ZM39.2651 68.6485H122.16V67.9596H39.2651V68.6485ZM37.1985 66.5818C37.1985 67.7232 38.1237 68.6485 39.2651 68.6485V67.9596C38.5042 67.9596 37.8874 67.3427 37.8874 66.5818H37.1985ZM37.1985 56.4583V66.5818H37.8874V56.4583H37.1985ZM41.4808 49.0127C41.4808 52.0629 39.829 54.7277 37.3695 56.1607L37.7163 56.756C40.3789 55.2046 42.1697 52.318 42.1697 49.0127H41.4808ZM37.3695 41.8647C39.829 43.2977 41.4808 45.9625 41.4808 49.0127H42.1697C42.1697 45.7074 40.3789 42.8208 37.7163 41.2694L37.3695 41.8647ZM37.1985 31.222V41.5671H37.8874V31.222H37.1985Z" fill="url(#paint10_linear_45287_5964)"/>
<path opacity="0.7" d="M111.577 45.3637C111.674 45.0883 112.063 45.0883 112.16 45.3637L112.984 47.7076C113.016 47.796 113.085 47.8655 113.173 47.8966L115.517 48.721C115.793 48.8179 115.793 49.2073 115.517 49.3041L113.173 50.1286C113.085 50.1597 113.016 50.2292 112.984 50.3176L112.16 52.6615C112.063 52.9369 111.674 52.9369 111.577 52.6615L110.752 50.3176C110.721 50.2292 110.652 50.1597 110.563 50.1286L108.219 49.3041C107.944 49.2073 107.944 48.8179 108.219 48.721L110.563 47.8966C110.652 47.8655 110.721 47.796 110.752 47.7076L111.577 45.3637Z" fill="#D09AFF"/>
<path opacity="0.7" d="M49.005 45.3637C49.1018 45.0883 49.4912 45.0883 49.5881 45.3637L50.4125 47.7076C50.4436 47.796 50.5132 47.8655 50.6015 47.8966L52.9455 48.721C53.2208 48.8179 53.2208 49.2073 52.9455 49.3041L50.6015 50.1286C50.5132 50.1597 50.4436 50.2292 50.4125 50.3176L49.5881 52.6615C49.4912 52.9369 49.1018 52.9369 49.005 52.6615L48.1805 50.3176C48.1494 50.2292 48.0799 50.1597 47.9915 50.1286L45.6476 49.3041C45.3722 49.2073 45.3722 48.8179 45.6476 48.721L47.9915 47.8966C48.0799 47.8655 48.1494 47.796 48.1805 47.7076L49.005 45.3637Z" fill="#D09AFF"/>
<g filter="url(#filter2_f_45287_5964)">
<path d="M136.695 98.7852C136.695 115.431 106.162 105.774 72.1104 105.774C38.0587 105.774 12.8667 108.197 12.8667 91.5518C15.9679 73.0244 38.0587 64.6849 72.1104 64.6849C104.317 74.5017 140.484 69.335 136.695 98.7852Z" fill="#6C30DD" fill-opacity="0.7"/>
</g>
<g opacity="0.8" filter="url(#filter3_d_45287_5964)">
<path d="M90.9489 37.8467C93.8455 37.8467 96.2735 38.6455 98.2329 40.2431C100.192 41.8026 101.172 43.9518 101.172 46.6905C101.172 48.5163 100.704 50.0949 99.7664 51.4262C98.8719 52.7575 97.6366 53.7845 96.0605 54.5073C94.4844 55.23 92.7592 55.5913 90.885 55.5913C88.7977 55.5913 86.9022 55.1349 85.1983 54.222C83.537 53.271 81.897 51.9777 80.2784 50.3421C79.1282 51.9017 77.6586 53.1759 75.8696 54.1649C74.0805 55.1159 72.121 55.5913 69.9912 55.5913C67.0094 55.5913 64.5601 54.8116 62.6432 53.252C60.7264 51.6544 59.7679 49.4863 59.7679 46.7475C59.7679 44.9217 60.2152 43.3431 61.1097 42.0118C62.0469 40.6805 63.3035 39.6535 64.8796 38.9308C66.4557 38.208 68.1808 37.8467 70.0551 37.8467C72.2275 37.8467 74.1231 38.3412 75.7418 39.3302C77.4031 40.2811 79.0004 41.5934 80.5339 43.2671C81.6841 41.6314 83.1536 40.3191 84.9427 39.3302C86.7744 38.3412 88.7764 37.8467 90.9489 37.8467ZM70.4385 50.9127C71.7164 50.9127 72.9517 50.5703 74.1444 49.8857C75.3797 49.1629 76.4233 48.231 77.2753 47.0899C75.9122 45.5684 74.7195 44.4272 73.6971 43.6665C72.6748 42.9057 71.5886 42.5253 70.4385 42.5253C69.0754 42.5253 67.9678 42.9057 67.1159 43.6665C66.264 44.3892 65.838 45.4162 65.838 46.7475C65.838 48.0789 66.264 49.1059 67.1159 49.8286C67.9678 50.5513 69.0754 50.9127 70.4385 50.9127ZM90.5016 50.9127C91.8647 50.9127 92.9722 50.5513 93.8242 49.8286C94.6761 49.0678 95.1021 48.0218 95.1021 46.6905C95.1021 45.3592 94.6761 44.3321 93.8242 43.6094C92.9722 42.8867 91.8647 42.5253 90.5016 42.5253C89.1811 42.5253 87.8819 42.8867 86.604 43.6094C85.3687 44.3321 84.3251 45.3211 83.4731 46.5764C84.751 48.0218 85.9224 49.1059 86.9874 49.8286C88.0523 50.5513 89.2237 50.9127 90.5016 50.9127Z" fill="#ECE4FC"/>
<path d="M90.9489 37.8467C93.8455 37.8467 96.2735 38.6455 98.2329 40.2431C100.192 41.8026 101.172 43.9518 101.172 46.6905C101.172 48.5163 100.704 50.0949 99.7664 51.4262C98.8719 52.7575 97.6366 53.7845 96.0605 54.5073C94.4844 55.23 92.7592 55.5913 90.885 55.5913C88.7977 55.5913 86.9022 55.1349 85.1983 54.222C83.537 53.271 81.897 51.9777 80.2784 50.3421C79.1282 51.9017 77.6586 53.1759 75.8696 54.1649C74.0805 55.1159 72.121 55.5913 69.9912 55.5913C67.0094 55.5913 64.5601 54.8116 62.6432 53.252C60.7264 51.6544 59.7679 49.4863 59.7679 46.7475C59.7679 44.9217 60.2152 43.3431 61.1097 42.0118C62.0469 40.6805 63.3035 39.6535 64.8796 38.9308C66.4557 38.208 68.1808 37.8467 70.0551 37.8467C72.2275 37.8467 74.1231 38.3412 75.7418 39.3302C77.4031 40.2811 79.0004 41.5934 80.5339 43.2671C81.6841 41.6314 83.1536 40.3191 84.9427 39.3302C86.7744 38.3412 88.7764 37.8467 90.9489 37.8467ZM70.4385 50.9127C71.7164 50.9127 72.9517 50.5703 74.1444 49.8857C75.3797 49.1629 76.4233 48.231 77.2753 47.0899C75.9122 45.5684 74.7195 44.4272 73.6971 43.6665C72.6748 42.9057 71.5886 42.5253 70.4385 42.5253C69.0754 42.5253 67.9678 42.9057 67.1159 43.6665C66.264 44.3892 65.838 45.4162 65.838 46.7475C65.838 48.0789 66.264 49.1059 67.1159 49.8286C67.9678 50.5513 69.0754 50.9127 70.4385 50.9127ZM90.5016 50.9127C91.8647 50.9127 92.9722 50.5513 93.8242 49.8286C94.6761 49.0678 95.1021 48.0218 95.1021 46.6905C95.1021 45.3592 94.6761 44.3321 93.8242 43.6094C92.9722 42.8867 91.8647 42.5253 90.5016 42.5253C89.1811 42.5253 87.8819 42.8867 86.604 43.6094C85.3687 44.3321 84.3251 45.3211 83.4731 46.5764C84.751 48.0218 85.9224 49.1059 86.9874 49.8286C88.0523 50.5513 89.2237 50.9127 90.5016 50.9127Z" fill="url(#paint11_linear_45287_5964)"/>
</g>
</g>
<path d="M65.0517 82.731C63.6757 76.6666 64.1326 72.1823 65.5103 69.3286C67.6506 64.8951 70.5555 68.3094 70.4535 68.717C70.3516 69.1247 71.2203 65.3918 73.5843 65.3918C76.1399 65.3918 76.8063 67.3241 76.8743 68.1055C76.8743 69.2598 76.7464 70.7778 76.5746 72.4733C76.7305 71.9275 76.9138 71.4635 77.1291 71.1122C77.694 70.1905 81.5626 68.5132 82.3779 72.3352C83.0302 75.3928 82.7518 82.0855 82.6839 84.3107C82.6839 84.3107 87.4689 88.1441 86.7555 90.692C86.0421 93.24 66.9609 91.1455 65.0517 82.731Z" fill="url(#paint12_linear_45287_5964)"/>
<path d="M69.8927 77.6348C69.5162 76.8156 69.8316 70.3175 70.5289 68.6687" stroke="black" stroke-width="0.610786" stroke-linecap="round"/>
<path d="M76.0421 80.8966C75.6656 80.0774 75.981 73.5793 76.6783 71.9306" stroke="black" stroke-width="0.610786" stroke-linecap="round"/>
<path d="M82.6598 81.5199C82.2619 83.5151 82.6327 86.5223 82.5848 88.2865C82.5368 90.0507 81.4595 91.7265 85.9099 91.3031C88.2927 91.0763 89.839 87.1776 88.3494 81.8903C86.7786 76.3148 83.2711 78.4541 82.6598 81.5199Z" fill="url(#paint13_linear_45287_5964)"/>
<path d="M88.6462 85.075C88.4424 81.6098 87.8308 78.8364 85.8086 78.5717C84.6503 78.4201 81.6647 80.081 82.6839 89.5595" stroke="black" stroke-width="0.610786" stroke-linecap="round"/>
<path d="M126.238 77.1588C126.016 77.5029 126.142 77.9636 126.508 78.1475L130.752 80.2821C131.067 80.4402 131.45 80.3358 131.641 80.0399L136.558 72.413C136.78 72.0688 136.655 71.6082 136.289 71.4242L132.044 69.2897C131.73 69.1315 131.346 69.236 131.156 69.5319L126.238 77.1588Z" fill="url(#paint14_linear_45287_5964)"/>
<defs>
<filter id="filter0_f_45287_5964" x="110.11" y="11.7808" width="35.5455" height="33.0057" filterUnits="userSpaceOnUse" color-interpolation-filters="sRGB">
<feFlood flood-opacity="0" result="BackgroundImageFix"/>
<feBlend mode="normal" in="SourceGraphic" in2="BackgroundImageFix" result="shape"/>
<feGaussianBlur stdDeviation="4.72168" result="effect1_foregroundBlur_45287_5964"/>
</filter>
<filter id="filter1_f_45287_5964" x="125.066" y="0.551151" width="31.2568" height="33.8163" filterUnits="userSpaceOnUse" color-interpolation-filters="sRGB">
<feFlood flood-opacity="0" result="BackgroundImageFix"/>
<feBlend mode="normal" in="SourceGraphic" in2="BackgroundImageFix" result="shape"/>
<feGaussianBlur stdDeviation="4.72168" result="effect1_foregroundBlur_45287_5964"/>
</filter>
<filter id="filter2_f_45287_5964" x="7.94114" y="59.7594" width="133.954" height="53.7257" filterUnits="userSpaceOnUse" color-interpolation-filters="sRGB">
<feFlood flood-opacity="0" result="BackgroundImageFix"/>
<feBlend mode="normal" in="SourceGraphic" in2="BackgroundImageFix" result="shape"/>
<feGaussianBlur stdDeviation="2.46279" result="effect1_foregroundBlur_45287_5964"/>
</filter>
<filter id="filter3_d_45287_5964" x="59.7679" y="37.8467" width="43.9242" height="20.8946" filterUnits="userSpaceOnUse" color-interpolation-filters="sRGB">
<feFlood flood-opacity="0" result="BackgroundImageFix"/>
<feColorMatrix in="SourceAlpha" type="matrix" values="0 0 0 0 0 0 0 0 0 0 0 0 0 0 0 0 0 0 127 0" result="hardAlpha"/>
<feOffset dx="2.52001" dy="3.15001"/>
<feComposite in2="hardAlpha" operator="out"/>
<feColorMatrix type="matrix" values="0 0 0 0 0 0 0 0 0 0 0 0 0 0 0 0 0 0 0.2 0"/>
<feBlend mode="normal" in2="BackgroundImageFix" result="effect1_dropShadow_45287_5964"/>
<feBlend mode="normal" in="SourceGraphic" in2="effect1_dropShadow_45287_5964" result="shape"/>
</filter>
<linearGradient id="paint0_linear_45287_5964" x1="17.3908" y1="42.1063" x2="24.6905" y2="46.8197" gradientUnits="userSpaceOnUse">
<stop stop-color="#FF8979"/>
<stop offset="1" stop-color="#E7452F"/>
</linearGradient>
<linearGradient id="paint1_linear_45287_5964" x1="117.425" y1="20.2632" x2="117.621" y2="15.4939" gradientUnits="userSpaceOnUse">
<stop stop-color="#FFC179"/>
<stop offset="1" stop-color="#EEA146"/>
</linearGradient>
<linearGradient id="paint2_linear_45287_5964" x1="134.074" y1="52.4949" x2="142.64" y2="50.673" gradientUnits="userSpaceOnUse">
<stop stop-color="#79CFFF"/>
<stop offset="1" stop-color="#2F79E7"/>
</linearGradient>
<linearGradient id="paint3_linear_45287_5964" x1="41.6037" y1="15.0048" x2="48.3271" y2="19.8734" gradientUnits="userSpaceOnUse">
<stop stop-color="#79CFFF"/>
<stop offset="1" stop-color="#2F79E7"/>
</linearGradient>
<linearGradient id="paint4_linear_45287_5964" x1="86.084" y1="71.2286" x2="86.6939" y2="78.9326" gradientUnits="userSpaceOnUse">
<stop stop-color="#C670FA"/>
<stop offset="1" stop-color="#A475F0"/>
</linearGradient>
<linearGradient id="paint5_linear_45287_5964" x1="24.8284" y1="74.1214" x2="33.1183" y2="79.6252" gradientUnits="userSpaceOnUse">
<stop stop-color="#FFC179"/>
<stop offset="1" stop-color="#EEA146"/>
</linearGradient>
<linearGradient id="paint6_linear_45287_5964" x1="79.8577" y1="35.8884" x2="82.2548" y2="76.4148" gradientUnits="userSpaceOnUse">
<stop stop-color="#8749FD"/>
<stop offset="1" stop-color="#712DF2"/>
</linearGradient>
<linearGradient id="paint7_linear_45287_5964" x1="71.0783" y1="54.6057" x2="48.9473" y2="23.8065" gradientUnits="userSpaceOnUse">
<stop stop-color="white" stop-opacity="0"/>
<stop offset="1" stop-color="white"/>
</linearGradient>
<linearGradient id="paint8_linear_45287_5964" x1="79.8577" y1="35.8884" x2="82.2548" y2="76.4148" gradientUnits="userSpaceOnUse">
<stop stop-color="#7F60FF"/>
<stop offset="1" stop-color="#6A3FFF"/>
</linearGradient>
<linearGradient id="paint9_linear_45287_5964" x1="71.0783" y1="54.6057" x2="48.9473" y2="23.8065" gradientUnits="userSpaceOnUse">
<stop stop-color="white" stop-opacity="0"/>
<stop offset="1" stop-color="white"/>
</linearGradient>
<linearGradient id="paint10_linear_45287_5964" x1="27.5058" y1="27.3127" x2="134.284" y2="67.9574" gradientUnits="userSpaceOnUse">
<stop stop-color="#C684EE" stop-opacity="0.7"/>
<stop offset="0.525034" stop-color="#AF7CF0"/>
<stop offset="1" stop-color="#C684EE" stop-opacity="0.7"/>
</linearGradient>
<linearGradient id="paint11_linear_45287_5964" x1="80.47" y1="37.8467" x2="80.47" y2="55.5913" gradientUnits="userSpaceOnUse">
<stop stop-color="#F4EEF6"/>
<stop offset="1" stop-color="#F1DDFF"/>
</linearGradient>
<linearGradient id="paint12_linear_45287_5964" x1="78.3362" y1="78.3356" x2="74.6396" y2="91.3132" gradientUnits="userSpaceOnUse">
<stop stop-color="#EACFFF"/>
<stop offset="1" stop-color="#C9A1FD"/>
</linearGradient>
<linearGradient id="paint13_linear_45287_5964" x1="86.9836" y1="84.9914" x2="84.1075" y2="90.6671" gradientUnits="userSpaceOnUse">
<stop stop-color="#F1DEFF"/>
<stop offset="1" stop-color="#C9A1FD"/>
</linearGradient>
<linearGradient id="paint14_linear_45287_5964" x1="132.62" y1="81.8685" x2="137.747" y2="66.3723" gradientUnits="userSpaceOnUse">
<stop stop-color="#FF8979"/>
<stop offset="1" stop-color="#E7452F"/>
</linearGradient>
</defs>
</svg>
