<svg width="224" height="48" viewBox="0 0 224 48" fill="none" xmlns="http://www.w3.org/2000/svg">
<g clip-path="url(#clip0_48697_15986)">
<rect width="224" height="48" rx="8" fill="#F6F6F8"/>
<rect width="224" height="48" rx="8" fill="url(#paint0_linear_48697_15986)"/>
<path d="M30.435 11.2801C30.3575 11.1095 30.1874 11 30 11C29.8126 11 29.6425 11.1095 29.565 11.2801L29.421 11.5969C28.8271 12.9031 28.5571 13.4908 28.183 13.9912C27.8449 14.4435 27.4435 14.8449 26.9912 15.183C26.4908 15.5571 25.9031 15.8271 24.5969 16.421L24.2801 16.565C24.1095 16.6425 24 16.8126 24 17C24 17.1874 24.1095 17.3575 24.2801 17.435L24.5969 17.579C25.9031 18.1729 26.4908 18.4429 26.9912 18.817C27.4435 19.1551 27.8449 19.5565 28.183 20.0088C28.5571 20.5092 28.8271 21.0969 29.421 22.4031L29.565 22.7199C29.6425 22.8905 29.8126 23 30 23C30.1874 23 30.3575 22.8905 30.435 22.7199L30.579 22.4031C31.1729 21.0969 31.4429 20.5092 31.817 20.0088C32.1551 19.5565 32.5565 19.1551 33.0088 18.817C33.5092 18.4429 34.0969 18.1729 35.4031 17.579L35.7199 17.435C35.8905 17.3575 36 17.1874 36 17C36 16.8126 35.8905 16.6425 35.7199 16.565L35.4031 16.421C34.0969 15.8271 33.5092 15.5571 33.0088 15.183C32.5565 14.8449 32.1551 14.4435 31.817 13.9912C31.4429 13.4908 31.1729 12.9031 30.579 11.5969L30.435 11.2801Z" fill="white"/>
<g filter="url(#filter0_f_48697_15986)">
<path d="M220.668 -12.9263C220.37 -13.5802 219.718 -14 219 -14C218.282 -14 217.63 -13.5802 217.332 -12.9263L216.78 -11.712C214.504 -6.70465 213.469 -4.45176 212.035 -2.53364C210.739 -0.799752 209.2 0.738853 207.466 2.03499C205.548 3.46884 203.295 4.50383 198.288 6.78033L197.074 7.33239C196.42 7.62967 196 8.2817 196 9C196 9.7183 196.42 10.3703 197.074 10.6676L198.288 11.2197C203.295 13.4962 205.548 14.5312 207.466 15.965C209.2 17.2611 210.739 18.7998 212.035 20.5336C213.469 22.4518 214.504 24.7046 216.78 29.712L217.332 30.9263C217.63 31.5802 218.282 32 219 32C219.718 32 220.37 31.5802 220.668 30.9263L221.22 29.712C223.496 24.7046 224.531 22.4518 225.965 20.5336C227.261 18.7998 228.8 17.2611 230.534 15.965C232.452 14.5312 234.705 13.4962 239.712 11.2197L240.926 10.6676C241.58 10.3703 242 9.7183 242 9C242 8.2817 241.58 7.62967 240.926 7.33239L239.712 6.78033C234.705 4.50383 232.452 3.46884 230.534 2.03499C228.8 0.738853 227.261 -0.799752 225.965 -2.53364C224.531 -4.45176 223.496 -6.70465 221.22 -11.712L220.668 -12.9263Z" fill="#7A59FF" fill-opacity="0.24"/>
</g>
<path d="M6.48376 3.19517C6.42973 3.07631 6.31121 3 6.18065 3C6.05008 3 5.93157 3.07631 5.87753 3.19517L5.77718 3.41588C5.36339 4.32606 5.17526 4.73556 4.91463 5.08421C4.67904 5.39937 4.39937 5.67904 4.08421 5.91463C3.73556 6.17526 3.32606 6.36339 2.41588 6.77718L2.19517 6.87753C2.07631 6.93157 2 7.05008 2 7.18065C2 7.31121 2.07631 7.42973 2.19517 7.48376L2.41588 7.58411C3.32606 7.9979 3.73556 8.18603 4.08421 8.44666C4.39937 8.68225 4.67904 8.96192 4.91463 9.27708C5.17526 9.62573 5.36339 10.0352 5.77718 10.9454L5.87753 11.1661C5.93157 11.285 6.05008 11.3613 6.18065 11.3613C6.31121 11.3613 6.42973 11.285 6.48376 11.1661L6.58411 10.9454C6.9979 10.0352 7.18603 9.62573 7.44666 9.27708C7.68225 8.96192 7.96192 8.68225 8.27708 8.44666C8.62573 8.18603 9.03523 7.9979 9.94541 7.58411L10.1661 7.48376C10.285 7.42973 10.3613 7.31121 10.3613 7.18065C10.3613 7.05008 10.285 6.93157 10.1661 6.87753L9.94541 6.77718C9.03523 6.36339 8.62573 6.17526 8.27708 5.91463C7.96192 5.67904 7.68225 5.39937 7.44666 5.08421C7.18603 4.73556 6.9979 4.32606 6.58411 3.41588L6.48376 3.19517Z" fill="white"/>
<path d="M211.484 11.1952C211.43 11.0763 211.311 11 211.181 11C211.05 11 210.932 11.0763 210.878 11.1952L210.777 11.4159C210.363 12.3261 210.175 12.7356 209.915 13.0842C209.679 13.3994 209.399 13.679 209.084 13.9146C208.736 14.1753 208.326 14.3634 207.416 14.7772L207.195 14.8775C207.076 14.9316 207 15.0501 207 15.1806C207 15.3112 207.076 15.4297 207.195 15.4838L207.416 15.5841C208.326 15.9979 208.736 16.186 209.084 16.4467C209.399 16.6823 209.679 16.9619 209.915 17.2771C210.175 17.6257 210.363 18.0352 210.777 18.9454L210.878 19.1661C210.932 19.285 211.05 19.3613 211.181 19.3613C211.311 19.3613 211.43 19.285 211.484 19.1661L211.584 18.9454C211.998 18.0352 212.186 17.6257 212.447 17.2771C212.682 16.9619 212.962 16.6823 213.277 16.4467C213.626 16.186 214.035 15.9979 214.945 15.5841L215.166 15.4838C215.285 15.4297 215.361 15.3112 215.361 15.1806C215.361 15.0501 215.285 14.9316 215.166 14.8775L214.945 14.7772C214.035 14.3634 213.626 14.1753 213.277 13.9146C212.962 13.679 212.682 13.3994 212.447 13.0842C212.186 12.7356 211.998 12.3261 211.584 11.4159L211.484 11.1952Z" fill="white"/>
<path d="M24.6963 32.8833L-1.30322 25.9167L-4.37527 37.3818C-4.63796 38.3621 -4.85723 39.1804 -4.98173 39.8634C-5.11158 40.5759 -5.1638 41.2635 -5.01427 41.9669C-4.78486 43.0462 -4.21965 44.0252 -3.39966 44.7635C-2.8652 45.2447 -2.24364 45.5433 -1.56172 45.7871C-0.907886 46.0208 -0.0896253 46.24 0.890703 46.5027L12.5033 49.6143C13.4836 49.877 14.3019 50.0963 14.985 50.2208C15.6974 50.3506 16.385 50.4028 17.0885 50.2533C18.1678 50.0239 19.1467 49.4587 19.8851 48.6387C20.3663 48.1042 20.6648 47.4827 20.9086 46.8007C21.1423 46.1469 21.3616 45.3287 21.6242 44.3484L24.6963 32.8833Z" fill="#6A3FFF"/>
<path d="M24.6963 32.8833L-1.30322 25.9167L-4.37527 37.3818C-4.63796 38.3621 -4.85723 39.1804 -4.98173 39.8634C-5.11158 40.5759 -5.1638 41.2635 -5.01427 41.9669C-4.78486 43.0462 -4.21965 44.0252 -3.39966 44.7635C-2.8652 45.2447 -2.24364 45.5433 -1.56172 45.7871C-0.907886 46.0208 -0.0896253 46.24 0.890703 46.5027L12.5033 49.6143C13.4836 49.877 14.3019 50.0963 14.985 50.2208C15.6974 50.3506 16.385 50.4028 17.0885 50.2533C18.1678 50.0239 19.1467 49.4587 19.8851 48.6387C20.3663 48.1042 20.6648 47.4827 20.9086 46.8007C21.1423 46.1469 21.3616 45.3287 21.6242 44.3484L24.6963 32.8833Z" fill="url(#paint1_linear_48697_15986)"/>
<path d="M2.32437 20.332C-0.125129 19.6756 -2.64291 21.1293 -3.29925 23.5788C-3.95559 26.0283 -2.50195 28.546 -0.0524527 29.2024L21.9707 35.1035C24.4202 35.7598 26.9379 34.3062 27.5943 31.8567C28.2506 29.4072 26.797 26.8894 24.3475 26.233L2.32437 20.332Z" fill="#CABEFF"/>
<path d="M2.32437 20.332C-0.125129 19.6756 -2.64291 21.1293 -3.29925 23.5788C-3.95559 26.0283 -2.50195 28.546 -0.0524527 29.2024L21.9707 35.1035C24.4202 35.7598 26.9379 34.3062 27.5943 31.8567C28.2506 29.4072 26.797 26.8894 24.3475 26.233L2.32437 20.332Z" fill="url(#paint2_linear_48697_15986)"/>
<path fill-rule="evenodd" clip-rule="evenodd" d="M8.10397 14.4446C8.78553 14.0511 9.65705 14.2847 10.0506 14.9662L11.6789 17.7866C12.8594 19.8313 15.474 20.5319 17.5187 19.3514L20.339 17.723C21.0206 17.3295 21.8921 17.563 22.2856 18.2446C22.6791 18.9262 22.4456 19.7977 21.764 20.1912L18.9437 21.8195C15.5358 23.7871 11.1782 22.6194 9.21072 19.2116L7.58238 16.3912C7.18888 15.7097 7.4224 14.8381 8.10397 14.4446Z" fill="#6128FF"/>
<path fill-rule="evenodd" clip-rule="evenodd" d="M8.10372 14.4445C8.78529 14.051 9.6568 14.2845 10.0503 14.9661L11.6787 17.7865C12.8592 19.8312 15.4737 20.5318 17.5184 19.3512L20.3388 17.7229C21.0203 17.3294 21.8919 17.5629 22.2854 18.2445C22.6789 18.9261 22.4453 19.7976 21.7638 20.1911L18.9434 21.8194C15.5356 23.7869 11.178 22.6193 9.21048 19.2115L7.58213 16.3911C7.18863 15.7095 7.42215 14.838 8.10372 14.4445Z" fill="#6128FF"/>
<mask id="mask0_48697_15986" style="mask-type:alpha" maskUnits="userSpaceOnUse" x="-6" y="20" width="34" height="31">
<path fill-rule="evenodd" clip-rule="evenodd" d="M-3.29901 23.5791C-2.64267 21.1296 -0.124884 19.676 2.32461 20.3323L24.3477 26.2334C26.7972 26.8897 28.2509 29.4075 27.5945 31.857C27.1297 33.5917 25.7314 34.8269 24.0848 35.1671L21.6246 44.3488C21.362 45.3291 21.1427 46.1474 20.909 46.8012C20.6652 47.4831 20.3667 48.1047 19.8854 48.6391C19.1471 49.4591 18.1681 50.0243 17.0888 50.2537C16.3854 50.4033 15.6978 50.351 14.9854 50.2212C14.3023 50.0967 13.484 49.8774 12.5037 49.6147L0.891076 46.5031C-0.0892517 46.2405 -0.907512 46.0213 -1.56135 45.7875C-2.24327 45.5437 -2.86482 45.2452 -3.39928 44.764C-4.21928 44.0256 -4.78449 43.0467 -5.0139 41.9674C-5.16342 41.2639 -5.1112 40.5763 -4.98135 39.8639C-4.85686 39.1808 -4.63758 38.3625 -4.3749 37.3822L-1.91464 28.2005C-3.17046 27.0826 -3.7638 25.3138 -3.29901 23.5791Z" fill="#CABEFF"/>
<path fill-rule="evenodd" clip-rule="evenodd" d="M-3.29901 23.5791C-2.64267 21.1296 -0.124884 19.676 2.32461 20.3323L24.3477 26.2334C26.7972 26.8897 28.2509 29.4075 27.5945 31.857C27.1297 33.5917 25.7314 34.8269 24.0848 35.1671L21.6246 44.3488C21.362 45.3291 21.1427 46.1474 20.909 46.8012C20.6652 47.4831 20.3667 48.1047 19.8854 48.6391C19.1471 49.4591 18.1681 50.0243 17.0888 50.2537C16.3854 50.4033 15.6978 50.351 14.9854 50.2212C14.3023 50.0967 13.484 49.8774 12.5037 49.6147L0.891076 46.5031C-0.0892517 46.2405 -0.907512 46.0213 -1.56135 45.7875C-2.24327 45.5437 -2.86482 45.2452 -3.39928 44.764C-4.21928 44.0256 -4.78449 43.0467 -5.0139 41.9674C-5.16342 41.2639 -5.1112 40.5763 -4.98135 39.8639C-4.85686 39.1808 -4.63758 38.3625 -4.3749 37.3822L-1.91464 28.2005C-3.17046 27.0826 -3.7638 25.3138 -3.29901 23.5791Z" fill="url(#paint3_linear_48697_15986)"/>
</mask>
<g mask="url(#mask0_48697_15986)">
<path opacity="0.86" d="M10.7163 22.5718L15.9599 23.9768L13.578 32.8663L8.33436 31.4613L10.7163 22.5718Z" fill="url(#paint4_linear_48697_15986)"/>
<path opacity="0.86" d="M8.33447 31.4613L13.5781 32.8663L9.31637 48.7712L4.07277 47.3662L8.33447 31.4613Z" fill="url(#paint5_linear_48697_15986)"/>
</g>
</g>
<defs>
<filter id="filter0_f_48697_15986" x="163.6" y="-46.4" width="110.8" height="110.8" filterUnits="userSpaceOnUse" color-interpolation-filters="sRGB">
<feFlood flood-opacity="0" result="BackgroundImageFix"/>
<feBlend mode="normal" in="SourceGraphic" in2="BackgroundImageFix" result="shape"/>
<feGaussianBlur stdDeviation="16.2" result="effect1_foregroundBlur_48697_15986"/>
</filter>
<linearGradient id="paint0_linear_48697_15986" x1="-6.79567" y1="38.4849" x2="87" y2="3.5" gradientUnits="userSpaceOnUse">
<stop stop-color="#7A59FF" stop-opacity="0.4"/>
<stop offset="1" stop-color="white" stop-opacity="0"/>
</linearGradient>
<linearGradient id="paint1_linear_48697_15986" x1="15.9814" y1="43.7414" x2="12.1078" y2="28.7909" gradientUnits="userSpaceOnUse">
<stop stop-color="#6128FF"/>
<stop offset="1" stop-color="#7A59FF" stop-opacity="0.24"/>
</linearGradient>
<linearGradient id="paint2_linear_48697_15986" x1="11.0001" y1="32" x2="10.1041" y2="18.9201" gradientUnits="userSpaceOnUse">
<stop stop-color="#6128FF"/>
<stop offset="1" stop-color="#7A59FF" stop-opacity="0.24"/>
</linearGradient>
<linearGradient id="paint3_linear_48697_15986" x1="11.0003" y1="32.0003" x2="10.1044" y2="18.9204" gradientUnits="userSpaceOnUse">
<stop stop-color="#6128FF"/>
<stop offset="1" stop-color="#7A59FF" stop-opacity="0.24"/>
</linearGradient>
<linearGradient id="paint4_linear_48697_15986" x1="13.3381" y1="23.2743" x2="10.9562" y2="32.1638" gradientUnits="userSpaceOnUse">
<stop stop-color="#DEFFFD"/>
<stop offset="1" stop-color="#9DFFFD"/>
</linearGradient>
<linearGradient id="paint5_linear_48697_15986" x1="11.0002" y1="32" x2="8.61823" y2="40.8895" gradientUnits="userSpaceOnUse">
<stop stop-color="#DEFFFD"/>
<stop offset="1" stop-color="#9DFFFD"/>
</linearGradient>
<clipPath id="clip0_48697_15986">
<rect width="224" height="48" rx="8" fill="white"/>
</clipPath>
</defs>
</svg>
