<svg width="360" height="290" viewBox="0 0 360 290" fill="none" xmlns="http://www.w3.org/2000/svg">
<g clip-path="url(#clip0_53718_25499)">
<rect width="360" height="290" fill="url(#paint0_linear_53718_25499)"/>
<rect width="360" height="290" fill="url(#paint1_linear_53718_25499)"/>
<g filter="url(#filter0_f_53718_25499)">
<path d="M359.723 -40.1038C371.114 -8.7354 369.329 26.5136 354.759 57.8888C340.189 89.264 314.029 114.195 282.032 127.198C250.036 140.201 214.825 140.21 184.145 127.224C153.465 114.237 129.83 89.319 118.438 57.9505L239.081 8.92334L359.723 -40.1038Z" fill="url(#paint2_linear_53718_25499)"/>
</g>
<g filter="url(#filter1_f_53718_25499)">
<path d="M15.7228 35.8962C27.1144 67.2646 25.3289 102.514 10.7591 133.889C-3.81071 165.264 -29.9713 190.195 -61.9676 203.198C-93.964 216.201 -129.175 216.21 -159.855 203.224C-190.535 190.237 -214.17 165.319 -225.562 133.951L-104.919 84.9233L15.7228 35.8962Z" fill="url(#paint3_linear_53718_25499)"/>
</g>
</g>
<defs>
<filter id="filter0_f_53718_25499" x="89.6382" y="-68.9039" width="306.303" height="234.661" filterUnits="userSpaceOnUse" color-interpolation-filters="sRGB">
<feFlood flood-opacity="0" result="BackgroundImageFix"/>
<feBlend mode="normal" in="SourceGraphic" in2="BackgroundImageFix" result="shape"/>
<feGaussianBlur stdDeviation="14.4" result="effect1_foregroundBlur_53718_25499"/>
</filter>
<filter id="filter1_f_53718_25499" x="-254.362" y="7.09612" width="306.303" height="234.661" filterUnits="userSpaceOnUse" color-interpolation-filters="sRGB">
<feFlood flood-opacity="0" result="BackgroundImageFix"/>
<feBlend mode="normal" in="SourceGraphic" in2="BackgroundImageFix" result="shape"/>
<feGaussianBlur stdDeviation="14.4" result="effect1_foregroundBlur_53718_25499"/>
</filter>
<linearGradient id="paint0_linear_53718_25499" x1="180" y1="93.5" x2="180" y2="323.5" gradientUnits="userSpaceOnUse">
<stop stop-color="white"/>
<stop offset="1" stop-color="white" stop-opacity="0"/>
</linearGradient>
<linearGradient id="paint1_linear_53718_25499" x1="346.875" y1="1.92787e-05" x2="312.89" y2="118.587" gradientUnits="userSpaceOnUse">
<stop stop-color="#7A59FF" stop-opacity="0.24"/>
<stop offset="1" stop-color="white" stop-opacity="0"/>
</linearGradient>
<linearGradient id="paint2_linear_53718_25499" x1="187.627" y1="108.013" x2="312.01" y2="-2.19622" gradientUnits="userSpaceOnUse">
<stop offset="0.00889242" stop-color="#EDFFEF"/>
<stop offset="0.364435" stop-color="#FFF5F0"/>
<stop offset="0.576897" stop-color="#FFF0F4"/>
<stop offset="1" stop-color="#D5CBFF"/>
</linearGradient>
<linearGradient id="paint3_linear_53718_25499" x1="-156.373" y1="184.013" x2="-31.99" y2="73.8038" gradientUnits="userSpaceOnUse">
<stop stop-color="#F3F0FF"/>
<stop offset="0.423103" stop-color="#F0E9FF"/>
<stop offset="0.635565" stop-color="#FFF5F0"/>
<stop offset="0.991108" stop-color="#EDFFEF"/>
</linearGradient>
<clipPath id="clip0_53718_25499">
<rect width="360" height="290" fill="white"/>
</clipPath>
</defs>
</svg>
