<svg id="m7lohtwe99527809" viewBox="0 0 24 24" xmlns="http://www.w3.org/2000/svg" xmlns:xlink="http://www.w3.org/1999/xlink"><g id="m7lohtwe99527809_translate"><g transform="matrix(1,0,0,1,0,0)"><g id="m7lohtwe99527809" opacity="1" style="mix-blend-mode:normal"><g><g><g id="m7lohtwl22796454_translate"><g transform="matrix(1,0,0,1,2,4)"><g id="m7lohtwl22796454" opacity="1" style="mix-blend-mode:normal"><g><g><g id="m7lohtx700100589_translate"><g transform="matrix(1,0,0,1,0,0)"><g id="m7lohtx700100589" opacity="1" style="mix-blend-mode:normal"><g><g><g id="m7lohtx715051508_translate"><g transform="matrix(1,0,0,1,11.2956,3.6695)"><g id="m7lohtx715051508" opacity="1" style="mix-blend-mode:normal"><g><g><path id="m7lohtx715051508_fill_path" d="M0,6.61396l1.20716,-0.06353c0.12707,-1.4613 1.33423,-4.82865 3.74856,-6.54412c0,-0.12707 -4.70158,1.65193 -4.95572,6.60765z" fill-rule="nonzero" fill="rgb(0, 153, 111)" fill-opacity="1" style="mix-blend-mode:normal"></path></g></g></g></g></g><g id="m7lohtx966780272_translate"><g transform="matrix(-0.9719310334598642,0.23526594780724272,0.235242421212462,0.9718338403565182,7.7214,5.3131)"><g id="m7lohtx966780272" opacity="1" style="mix-blend-mode:normal"><g><g><path id="m7lohtx966780272_fill_path" d="M0,6.55185c0.32277,0.17174 1.24804,0.02475 1.24804,0.02475c0.12707,-1.4613 1.66875,-4.71835 3.76838,-6.57009c0,-0.12707 -4.76228,1.58961 -5.01642,6.54534z" fill-rule="nonzero" fill="rgb(0, 153, 111)" fill-opacity="1" style="mix-blend-mode:normal"></path></g></g></g></g></g><g id="m7lohtxb01844871_translate"><g transform="matrix(1,0,0,1,0.0502,0.499)"><g id="m7lohtxb01844871" opacity="1" style="mix-blend-mode:normal"><g><g><path id="m7lohtxb01844871_fill_path" d="M13.45853,1.37299c-3.08041,1.92467 -3.61785,5.50473 -3.61787,7.18128c0,0.06856 0.00054,0.13266 0.00162,0.19272c-0.01893,-0.05875 -0.0401,-0.11619 -0.0637,-0.17203c-1.90196,-4.17218 -7.31154,-3.95282 -9.77858,-3.31127c0.24266,0.59087 0.43746,1.10885 0.61082,1.56979c0.3731,0.99206 0.64684,1.71991 1.08441,2.34163c1.56406,2.2223 4.29192,2.54632 6.33872,2.34787c-0.65304,-2.07725 -2.08241,-3.80216 -3.94001,-4.8439c2.74709,0.46943 4.89206,2.70615 5.22593,5.49994c0.1749,1.19899 0.20166,2.81494 -0.18217,4.46711h2.5015c-0.30656,-1.03167 -0.77735,-3.76664 -0.34999,-6.80797c0.25534,-3.0104 2.22654,-5.5476 4.88876,-6.67666c-2.09607,1.50906 -3.5088,3.85923 -3.79452,6.56529c0.05204,-0.00751 0.07296,-0.00523 0.12405,-0.0136c3.99092,-0.38532 5.50037,-2.91688 5.85117,-3.50522l0.00864,-0.01448c0.00399,-0.00669 0.00782,-0.01309 0.01148,-0.0192c0.3101,-0.51738 1.36445,-3.9735 1.57119,-6.16721c-3.17545,-0.09934 -5.65073,0.8692 -6.49144,1.36589z" fill-rule="nonzero" fill="rgb(86, 196, 152)" fill-opacity="1" style="mix-blend-mode:normal"></path></g></g></g></g></g></g></g></g></g></g></g></g></g></g></g><g id="m7lohtxq78588984_translate"><g transform="matrix(1,0,0,1,18,14)"><g id="m7lohtxq78588984" opacity="0.5" style="mix-blend-mode:normal"><g><g><path id="m7lohtxq78588984_fill_path" d="M2.68126,0.11671c-0.03231,-0.07108 -0.10319,-0.11671 -0.18126,-0.11671c-0.07808,0 -0.14895,0.04563 -0.18126,0.11671l-0.06001,0.13199c-0.24745,0.54428 -0.35994,0.78916 -0.5158,0.99765c-0.14088,0.18847 -0.30812,0.35571 -0.49659,0.49659c-0.20849,0.15585 -0.45337,0.26835 -0.99765,0.5158l-0.13199,0.06001c-0.07108,0.03231 -0.11671,0.10319 -0.11671,0.18126c0,0.07808 0.04563,0.14895 0.11671,0.18126l0.13199,0.06001c0.54428,0.24745 0.78916,0.35994 0.99765,0.5158c0.18847,0.14088 0.35571,0.30812 0.49659,0.49659c0.15585,0.20849 0.26835,0.45337 0.5158,0.99765l0.06001,0.13199c0.03231,0.07108 0.10319,0.11671 0.18126,0.11671c0.07808,0 0.14895,-0.04563 0.18126,-0.11671l0.06001,-0.13199c0.24745,-0.54428 0.35994,-0.78916 0.5158,-0.99765c0.14088,-0.18847 0.30812,-0.35571 0.49659,-0.49659c0.20849,-0.15585 0.45337,-0.26835 0.99765,-0.5158l0.13199,-0.06001c0.07108,-0.03231 0.11671,-0.10319 0.11671,-0.18126c0,-0.07808 -0.04563,-0.14895 -0.11671,-0.18126l-0.13199,-0.06001c-0.54428,-0.24745 -0.78916,-0.35994 -0.99765,-0.5158c-0.18847,-0.14088 -0.35571,-0.30812 -0.49659,-0.49659c-0.15585,-0.20849 -0.26835,-0.45337 -0.5158,-0.99765z" fill-rule="nonzero" fill="rgb(255, 255, 255)" fill-opacity="0.6" style="mix-blend-mode:normal"></path></g></g></g></g></g><g id="m7lohtxt29921329_translate"><g transform="matrix(1,0,0,1,2,2)"><g id="m7lohtxt29921329" opacity="0.5" style="mix-blend-mode:normal"><g><g><path id="m7lohtxt29921329_fill_path" d="M2.68126,0.11671c-0.03231,-0.07108 -0.10319,-0.11671 -0.18126,-0.11671c-0.07808,0 -0.14895,0.04563 -0.18126,0.11671l-0.06001,0.13199c-0.24745,0.54428 -0.35994,0.78916 -0.5158,0.99765c-0.14088,0.18847 -0.30812,0.35571 -0.49659,0.49659c-0.20849,0.15585 -0.45337,0.26835 -0.99765,0.5158l-0.13199,0.06001c-0.07108,0.03231 -0.11671,0.10319 -0.11671,0.18126c0,0.07808 0.04563,0.14895 0.11671,0.18126l0.13199,0.06001c0.54428,0.24745 0.78916,0.35994 0.99765,0.5158c0.18847,0.14088 0.35571,0.30812 0.49659,0.49659c0.15585,0.20849 0.26835,0.45337 0.5158,0.99765l0.06001,0.13199c0.03231,0.07108 0.10319,0.11671 0.18126,0.11671c0.07808,0 0.14895,-0.04563 0.18126,-0.11671l0.06001,-0.13199c0.24745,-0.54428 0.35994,-0.78916 0.5158,-0.99765c0.14088,-0.18847 0.30812,-0.35571 0.49659,-0.49659c0.20849,-0.15585 0.45337,-0.26835 0.99765,-0.5158l0.13199,-0.06001c0.07108,-0.03231 0.11671,-0.10319 0.11671,-0.18126c0,-0.07808 -0.04563,-0.14895 -0.11671,-0.18126l-0.13199,-0.06001c-0.54428,-0.24745 -0.78916,-0.35994 -0.99765,-0.5158c-0.18847,-0.14088 -0.35571,-0.30812 -0.49659,-0.49659c-0.15585,-0.20849 -0.26835,-0.45337 -0.5158,-0.99765z" fill-rule="nonzero" fill="rgb(255, 255, 255)" fill-opacity="0.6" style="mix-blend-mode:normal"></path></g></g></g></g></g></g></g></g></g></g><animateTransform href="#m7lohtwl22796454" attributeName="transform" type="translate" values="10 18.0952;10 18.0952;10 18.0952;10 18.0952;10 18.0952;10 18.0952;10 18.0952;10 18.0952;10 18.0952;10 18.0952;10 18.0952;10 18.0952" dur="5s" repeatCount="indefinite" calcMode="spline" keyTimes="0;0.04;0.07;0.11;0.14;0.18;0.2;0.24;0.27;0.31;0.34;1" keySplines="0.33 0 0.67 1;0.33 0 0.67 1;0.33 0 0.67 1;0.33 0 0.67 1;0.33 0 0.67 1;0.33 0 0.67 1;0.33 0 0.67 1;0.33 0 0.67 1;0.33 0 0.67 1;0.33 0 0.67 1;0.33 0 0.67 1" additive="sum" fill="freeze"></animateTransform><animateTransform href="#m7lohtwl22796454" attributeName="transform" type="scale" values="1 1;0.8841 1.1159;0.9 1.1;1.0159 0.9841;1 1;1 1;1 1;0.8841 1.1159;0.9 1.1;1.0159 0.9841;1 1;1 1" dur="5s" repeatCount="indefinite" calcMode="spline" keyTimes="0;0.04;0.07;0.11;0.14;0.18;0.2;0.24;0.27;0.31;0.34;1" keySplines="0.33 0 0.67 1;0.33 0 0.67 1;0.33 0 0.67 1;0.33 0 0.67 1;0.33 0 0.67 1;0.33 0 0.67 1;0.33 0 0.67 1;0.33 0 0.67 1;0.33 0 0.67 1;0.33 0 0.67 1;0.33 0 0.67 1" additive="sum" fill="freeze"></animateTransform><animateTransform href="#m7lohtwl22796454" attributeName="transform" type="translate" values="-10 -18.0952;-10 -18.0952;-10 -18.0952;-10 -18.0952;-10 -18.0952;-10 -18.0952;-10 -18.0952;-10 -18.0952;-10 -18.0952;-10 -18.0952;-10 -18.0952;-10 -18.0952" dur="5s" repeatCount="indefinite" calcMode="spline" keyTimes="0;0.04;0.07;0.11;0.14;0.18;0.2;0.24;0.27;0.31;0.34;1" keySplines="0.33 0 0.67 1;0.33 0 0.67 1;0.33 0 0.67 1;0.33 0 0.67 1;0.33 0 0.67 1;0.33 0 0.67 1;0.33 0 0.67 1;0.33 0 0.67 1;0.33 0 0.67 1;0.33 0 0.67 1;0.33 0 0.67 1" additive="sum" fill="freeze"></animateTransform><animateTransform href="#m7lohtxq78588984" attributeName="transform" type="translate" values="2.5 2.5;2.5 2.5;2.5 2.5;2.5 2.5;2.5 2.5;2.5 2.5;2.5 2.5;2.5 2.5" dur="5s" repeatCount="indefinite" calcMode="spline" keyTimes="0;0.06;0.12;0.18;0.24;0.3;0.36;1" keySplines="0 0.35 0.15 1;0 0.35 0.15 1;0 0.35 0.15 1;0 0.35 0.15 1;0 0.35 0.15 1;0 0.35 0.15 1;0.5 0.35 0.15 1" additive="sum" fill="freeze"></animateTransform><animateTransform href="#m7lohtxq78588984" attributeName="transform" type="scale" values="1.15 1.15;1 1;1.15 1.15;1 1;1.15 1.15;1 1;1.15 1.15;1.15 1.15" dur="5s" repeatCount="indefinite" calcMode="spline" keyTimes="0;0.06;0.12;0.18;0.24;0.3;0.36;1" keySplines="0 0.35 0.15 1;0 0.35 0.15 1;0 0.35 0.15 1;0 0.35 0.15 1;0 0.35 0.15 1;0 0.35 0.15 1;0.5 0.35 0.15 1" additive="sum" fill="freeze"></animateTransform><animateTransform href="#m7lohtxq78588984" attributeName="transform" type="translate" values="-2.5 -2.5;-2.5 -2.5;-2.5 -2.5;-2.5 -2.5;-2.5 -2.5;-2.5 -2.5;-2.5 -2.5;-2.5 -2.5" dur="5s" repeatCount="indefinite" calcMode="spline" keyTimes="0;0.06;0.12;0.18;0.24;0.3;0.36;1" keySplines="0 0.35 0.15 1;0 0.35 0.15 1;0 0.35 0.15 1;0 0.35 0.15 1;0 0.35 0.15 1;0 0.35 0.15 1;0.5 0.35 0.15 1" additive="sum" fill="freeze"></animateTransform><animateTransform href="#m7lohtxt29921329" attributeName="transform" type="translate" values="2.5 2.5;2.5 2.5;2.5 2.5;2.5 2.5;2.5 2.5;2.5 2.5;2.5 2.5;2.5 2.5" dur="5s" repeatCount="indefinite" calcMode="spline" keyTimes="0;0.06;0.12;0.18;0.24;0.3;0.36;1" keySplines="0 0.35 0.15 1;0 0.35 0.15 1;0 0.35 0.15 1;0 0.35 0.15 1;0 0.35 0.15 1;0 0.35 0.15 1;0.5 0.35 0.15 1" additive="sum" fill="freeze"></animateTransform><animateTransform href="#m7lohtxt29921329" attributeName="transform" type="scale" values="1 1;1.2 1.2;1 1;1.2 1.2;1 1;1.2 1.2;1 1;1 1" dur="5s" repeatCount="indefinite" calcMode="spline" keyTimes="0;0.06;0.12;0.18;0.24;0.3;0.36;1" keySplines="0 0.35 0.15 1;0 0.35 0.15 1;0 0.35 0.15 1;0 0.35 0.15 1;0 0.35 0.15 1;0 0.35 0.15 1;0.5 0.35 0.15 1" additive="sum" fill="freeze"></animateTransform><animateTransform href="#m7lohtxt29921329" attributeName="transform" type="translate" values="-2.5 -2.5;-2.5 -2.5;-2.5 -2.5;-2.5 -2.5;-2.5 -2.5;-2.5 -2.5;-2.5 -2.5;-2.5 -2.5" dur="5s" repeatCount="indefinite" calcMode="spline" keyTimes="0;0.06;0.12;0.18;0.24;0.3;0.36;1" keySplines="0 0.35 0.15 1;0 0.35 0.15 1;0 0.35 0.15 1;0 0.35 0.15 1;0 0.35 0.15 1;0 0.35 0.15 1;0.5 0.35 0.15 1" additive="sum" fill="freeze"></animateTransform></svg>
